<svg xmlns="http://www.w3.org/2000/svg" xmlns:xlink="http://www.w3.org/1999/xlink" width="301" zoomAndPan="magnify" viewBox="0 0 225.75 77.249999" height="103" preserveAspectRatio="xMidYMid meet" version="1.2">
  <style>
    g:not(.icon_bg) { fill: #1B1B18 } @media (prefers-color-scheme:dark) { g > g:not(.icon_bg) { fill: #fff } }
  </style>
  <defs>
    <clipPath id="862206b1e5">
      <path d="M 0.960938 0 L 76.503906 0 L 76.503906 76 L 0.960938 76 Z M 0.960938 0 "/>
    </clipPath>
    <clipPath id="68a5065412">
      <path d="M 16.558594 0 L 60.90625 0 C 65.042969 0 69.007812 1.644531 71.933594 4.570312 C 74.859375 7.492188 76.503906 11.460938 76.503906 15.597656 L 76.503906 60.3125 C 76.503906 64.453125 74.859375 68.417969 71.933594 71.34375 C 69.007812 74.269531 65.042969 75.914062 60.90625 75.914062 L 16.558594 75.914062 C 7.945312 75.914062 0.960938 68.929688 0.960938 60.3125 L 0.960938 15.597656 C 0.960938 6.984375 7.945312 0 16.558594 0 Z M 16.558594 0 "/>
    </clipPath>
  </defs>
  <g id="f6701a2d1a">
    <g class="icon_bg" clip-rule="nonzero" clip-path="url(#862206b1e5)">
      <g clip-rule="nonzero" clip-path="url(#68a5065412)">
        <path style=" stroke:none;fill-rule:nonzero;fill:#0550aa;fill-opacity:1;" d="M 0.960938 0 L 76.503906 0 L 76.503906 75.835938 L 0.960938 75.835938 Z M 0.960938 0 "/>
      </g>
    </g>
    <path style=" stroke:none;fill-rule:evenodd;fill:#ffffff;fill-opacity:1;" d="M 22.933594 20.808594 C 21.265625 20.808594 19.914062 22.160156 19.914062 23.824219 L 19.914062 34.082031 L 37.53125 34.082031 L 37.53125 23.824219 C 37.53125 22.160156 36.179688 20.808594 34.515625 20.808594 Z M 44.410156 34.082031 L 44.410156 26.238281 L 54.785156 26.238281 L 54.785156 34.082031 L 58.40625 34.082031 L 58.40625 25.636719 C 58.40625 23.96875 57.054688 22.621094 55.390625 22.621094 L 43.804688 22.621094 C 42.140625 22.621094 40.789062 23.96875 40.789062 25.636719 L 40.789062 34.082031 Z M 58.40625 39.511719 L 19.796875 39.511719 L 19.796875 43.128906 L 58.40625 43.128906 Z M 43.925781 50.371094 L 19.796875 50.371094 L 19.796875 53.988281 L 43.925781 53.988281 Z M 43.925781 50.371094 "/>
    <g style="fill:#0a0a0a;fill-opacity:1;">
      <g transform="translate(89.9981, 25.318828)">
        <path style="stroke:none" d="M 5.46875 -1.21875 C 5.90625 -1.21875 6.28125 -1.269531 6.59375 -1.375 C 6.914062 -1.476562 7.175781 -1.617188 7.375 -1.796875 C 7.582031 -1.984375 7.734375 -2.203125 7.828125 -2.453125 C 7.929688 -2.703125 7.984375 -2.976562 7.984375 -3.28125 C 7.984375 -3.875 7.769531 -4.34375 7.34375 -4.6875 C 6.925781 -5.03125 6.300781 -5.203125 5.46875 -5.203125 L 3 -5.203125 L 3 -1.21875 Z M 3 -10.1875 L 3 -6.296875 L 5.03125 -6.296875 C 5.46875 -6.296875 5.84375 -6.34375 6.15625 -6.4375 C 6.476562 -6.53125 6.742188 -6.660156 6.953125 -6.828125 C 7.171875 -7.003906 7.328125 -7.210938 7.421875 -7.453125 C 7.523438 -7.691406 7.578125 -7.957031 7.578125 -8.25 C 7.578125 -8.925781 7.375 -9.414062 6.96875 -9.71875 C 6.570312 -10.03125 5.945312 -10.1875 5.09375 -10.1875 Z M 5.09375 -11.40625 C 5.789062 -11.40625 6.394531 -11.335938 6.90625 -11.203125 C 7.414062 -11.066406 7.832031 -10.867188 8.15625 -10.609375 C 8.476562 -10.359375 8.71875 -10.046875 8.875 -9.671875 C 9.03125 -9.304688 9.109375 -8.894531 9.109375 -8.4375 C 9.109375 -8.15625 9.0625 -7.882812 8.96875 -7.625 C 8.882812 -7.363281 8.753906 -7.117188 8.578125 -6.890625 C 8.398438 -6.671875 8.175781 -6.472656 7.90625 -6.296875 C 7.644531 -6.117188 7.332031 -5.976562 6.96875 -5.875 C 7.8125 -5.707031 8.441406 -5.40625 8.859375 -4.96875 C 9.285156 -4.53125 9.5 -3.957031 9.5 -3.25 C 9.5 -2.769531 9.410156 -2.328125 9.234375 -1.921875 C 9.054688 -1.523438 8.796875 -1.179688 8.453125 -0.890625 C 8.109375 -0.609375 7.6875 -0.390625 7.1875 -0.234375 C 6.6875 -0.078125 6.117188 0 5.484375 0 L 1.453125 0 L 1.453125 -11.40625 Z M 5.09375 -11.40625 "/>
      </g>
    </g>
    <g style="fill:#0a0a0a;fill-opacity:1;">
      <g transform="translate(100.129404, 25.318828)">
        <path style="stroke:none" d="M 2.59375 -11.734375 L 2.59375 0 L 1.171875 0 L 1.171875 -11.734375 Z M 2.59375 -11.734375 "/>
      </g>
    </g>
    <g style="fill:#0a0a0a;fill-opacity:1;">
      <g transform="translate(103.885877, 25.318828)">
        <path style="stroke:none" d="M 5.5 -3.625 C 4.84375 -3.601562 4.285156 -3.550781 3.828125 -3.46875 C 3.367188 -3.394531 2.992188 -3.289062 2.703125 -3.15625 C 2.410156 -3.019531 2.195312 -2.859375 2.0625 -2.671875 C 1.9375 -2.492188 1.875 -2.296875 1.875 -2.078125 C 1.875 -1.867188 1.90625 -1.6875 1.96875 -1.53125 C 2.039062 -1.375 2.132812 -1.242188 2.25 -1.140625 C 2.375 -1.046875 2.515625 -0.976562 2.671875 -0.9375 C 2.835938 -0.894531 3.015625 -0.875 3.203125 -0.875 C 3.453125 -0.875 3.679688 -0.894531 3.890625 -0.9375 C 4.097656 -0.988281 4.289062 -1.0625 4.46875 -1.15625 C 4.65625 -1.257812 4.832031 -1.375 5 -1.5 C 5.164062 -1.632812 5.332031 -1.785156 5.5 -1.953125 Z M 0.921875 -6.921875 C 1.359375 -7.359375 1.832031 -7.679688 2.34375 -7.890625 C 2.863281 -8.097656 3.4375 -8.203125 4.0625 -8.203125 C 4.519531 -8.203125 4.921875 -8.128906 5.265625 -7.984375 C 5.617188 -7.835938 5.914062 -7.628906 6.15625 -7.359375 C 6.394531 -7.097656 6.570312 -6.773438 6.6875 -6.390625 C 6.8125 -6.015625 6.875 -5.601562 6.875 -5.15625 L 6.875 0 L 6.25 0 C 6.113281 0 6.003906 -0.0195312 5.921875 -0.0625 C 5.847656 -0.113281 5.789062 -0.203125 5.75 -0.328125 L 5.59375 -1.09375 C 5.382812 -0.894531 5.175781 -0.71875 4.96875 -0.5625 C 4.769531 -0.414062 4.554688 -0.289062 4.328125 -0.1875 C 4.109375 -0.09375 3.875 -0.0195312 3.625 0.03125 C 3.375 0.09375 3.09375 0.125 2.78125 0.125 C 2.46875 0.125 2.171875 0.0820312 1.890625 0 C 1.617188 -0.09375 1.378906 -0.222656 1.171875 -0.390625 C 0.972656 -0.566406 0.8125 -0.789062 0.6875 -1.0625 C 0.570312 -1.332031 0.515625 -1.648438 0.515625 -2.015625 C 0.515625 -2.328125 0.601562 -2.628906 0.78125 -2.921875 C 0.957031 -3.222656 1.238281 -3.488281 1.625 -3.71875 C 2.019531 -3.945312 2.53125 -4.132812 3.15625 -4.28125 C 3.789062 -4.425781 4.570312 -4.507812 5.5 -4.53125 L 5.5 -5.15625 C 5.5 -5.78125 5.363281 -6.253906 5.09375 -6.578125 C 4.820312 -6.898438 4.425781 -7.0625 3.90625 -7.0625 C 3.550781 -7.0625 3.253906 -7.015625 3.015625 -6.921875 C 2.785156 -6.835938 2.582031 -6.738281 2.40625 -6.625 C 2.238281 -6.519531 2.09375 -6.421875 1.96875 -6.328125 C 1.84375 -6.242188 1.71875 -6.203125 1.59375 -6.203125 C 1.5 -6.203125 1.414062 -6.226562 1.34375 -6.28125 C 1.269531 -6.332031 1.210938 -6.394531 1.171875 -6.46875 Z M 0.921875 -6.921875 "/>
      </g>
    </g>
    <g style="fill:#0a0a0a;fill-opacity:1;">
      <g transform="translate(111.637555, 25.318828)">
        <path style="stroke:none" d="M 5.46875 -1.21875 C 5.90625 -1.21875 6.28125 -1.269531 6.59375 -1.375 C 6.914062 -1.476562 7.175781 -1.617188 7.375 -1.796875 C 7.582031 -1.984375 7.734375 -2.203125 7.828125 -2.453125 C 7.929688 -2.703125 7.984375 -2.976562 7.984375 -3.28125 C 7.984375 -3.875 7.769531 -4.34375 7.34375 -4.6875 C 6.925781 -5.03125 6.300781 -5.203125 5.46875 -5.203125 L 3 -5.203125 L 3 -1.21875 Z M 3 -10.1875 L 3 -6.296875 L 5.03125 -6.296875 C 5.46875 -6.296875 5.84375 -6.34375 6.15625 -6.4375 C 6.476562 -6.53125 6.742188 -6.660156 6.953125 -6.828125 C 7.171875 -7.003906 7.328125 -7.210938 7.421875 -7.453125 C 7.523438 -7.691406 7.578125 -7.957031 7.578125 -8.25 C 7.578125 -8.925781 7.375 -9.414062 6.96875 -9.71875 C 6.570312 -10.03125 5.945312 -10.1875 5.09375 -10.1875 Z M 5.09375 -11.40625 C 5.789062 -11.40625 6.394531 -11.335938 6.90625 -11.203125 C 7.414062 -11.066406 7.832031 -10.867188 8.15625 -10.609375 C 8.476562 -10.359375 8.71875 -10.046875 8.875 -9.671875 C 9.03125 -9.304688 9.109375 -8.894531 9.109375 -8.4375 C 9.109375 -8.15625 9.0625 -7.882812 8.96875 -7.625 C 8.882812 -7.363281 8.753906 -7.117188 8.578125 -6.890625 C 8.398438 -6.671875 8.175781 -6.472656 7.90625 -6.296875 C 7.644531 -6.117188 7.332031 -5.976562 6.96875 -5.875 C 7.8125 -5.707031 8.441406 -5.40625 8.859375 -4.96875 C 9.285156 -4.53125 9.5 -3.957031 9.5 -3.25 C 9.5 -2.769531 9.410156 -2.328125 9.234375 -1.921875 C 9.054688 -1.523438 8.796875 -1.179688 8.453125 -0.890625 C 8.109375 -0.609375 7.6875 -0.390625 7.1875 -0.234375 C 6.6875 -0.078125 6.117188 0 5.484375 0 L 1.453125 0 L 1.453125 -11.40625 Z M 5.09375 -11.40625 "/>
      </g>
    </g>
    <g style="fill:#0a0a0a;fill-opacity:1;">
      <g transform="translate(121.768859, 25.318828)">
        <path style="stroke:none" d="M 2.59375 -11.734375 L 2.59375 0 L 1.171875 0 L 1.171875 -11.734375 Z M 2.59375 -11.734375 "/>
      </g>
    </g>
    <g style="fill:#0a0a0a;fill-opacity:1;">
      <g transform="translate(125.525332, 25.318828)">
        <path style="stroke:none" d="M 5.5 -3.625 C 4.84375 -3.601562 4.285156 -3.550781 3.828125 -3.46875 C 3.367188 -3.394531 2.992188 -3.289062 2.703125 -3.15625 C 2.410156 -3.019531 2.195312 -2.859375 2.0625 -2.671875 C 1.9375 -2.492188 1.875 -2.296875 1.875 -2.078125 C 1.875 -1.867188 1.90625 -1.6875 1.96875 -1.53125 C 2.039062 -1.375 2.132812 -1.242188 2.25 -1.140625 C 2.375 -1.046875 2.515625 -0.976562 2.671875 -0.9375 C 2.835938 -0.894531 3.015625 -0.875 3.203125 -0.875 C 3.453125 -0.875 3.679688 -0.894531 3.890625 -0.9375 C 4.097656 -0.988281 4.289062 -1.0625 4.46875 -1.15625 C 4.65625 -1.257812 4.832031 -1.375 5 -1.5 C 5.164062 -1.632812 5.332031 -1.785156 5.5 -1.953125 Z M 0.921875 -6.921875 C 1.359375 -7.359375 1.832031 -7.679688 2.34375 -7.890625 C 2.863281 -8.097656 3.4375 -8.203125 4.0625 -8.203125 C 4.519531 -8.203125 4.921875 -8.128906 5.265625 -7.984375 C 5.617188 -7.835938 5.914062 -7.628906 6.15625 -7.359375 C 6.394531 -7.097656 6.570312 -6.773438 6.6875 -6.390625 C 6.8125 -6.015625 6.875 -5.601562 6.875 -5.15625 L 6.875 0 L 6.25 0 C 6.113281 0 6.003906 -0.0195312 5.921875 -0.0625 C 5.847656 -0.113281 5.789062 -0.203125 5.75 -0.328125 L 5.59375 -1.09375 C 5.382812 -0.894531 5.175781 -0.71875 4.96875 -0.5625 C 4.769531 -0.414062 4.554688 -0.289062 4.328125 -0.1875 C 4.109375 -0.09375 3.875 -0.0195312 3.625 0.03125 C 3.375 0.09375 3.09375 0.125 2.78125 0.125 C 2.46875 0.125 2.171875 0.0820312 1.890625 0 C 1.617188 -0.09375 1.378906 -0.222656 1.171875 -0.390625 C 0.972656 -0.566406 0.8125 -0.789062 0.6875 -1.0625 C 0.570312 -1.332031 0.515625 -1.648438 0.515625 -2.015625 C 0.515625 -2.328125 0.601562 -2.628906 0.78125 -2.921875 C 0.957031 -3.222656 1.238281 -3.488281 1.625 -3.71875 C 2.019531 -3.945312 2.53125 -4.132812 3.15625 -4.28125 C 3.789062 -4.425781 4.570312 -4.507812 5.5 -4.53125 L 5.5 -5.15625 C 5.5 -5.78125 5.363281 -6.253906 5.09375 -6.578125 C 4.820312 -6.898438 4.425781 -7.0625 3.90625 -7.0625 C 3.550781 -7.0625 3.253906 -7.015625 3.015625 -6.921875 C 2.785156 -6.835938 2.582031 -6.738281 2.40625 -6.625 C 2.238281 -6.519531 2.09375 -6.421875 1.96875 -6.328125 C 1.84375 -6.242188 1.71875 -6.203125 1.59375 -6.203125 C 1.5 -6.203125 1.414062 -6.226562 1.34375 -6.28125 C 1.269531 -6.332031 1.210938 -6.394531 1.171875 -6.46875 Z M 0.921875 -6.921875 "/>
      </g>
    </g>
    <g style="fill:#0a0a0a;fill-opacity:1;">
      <g transform="translate(133.27701, 25.318828)">
        <path style="stroke:none" d="M 5.46875 -1.21875 C 5.90625 -1.21875 6.28125 -1.269531 6.59375 -1.375 C 6.914062 -1.476562 7.175781 -1.617188 7.375 -1.796875 C 7.582031 -1.984375 7.734375 -2.203125 7.828125 -2.453125 C 7.929688 -2.703125 7.984375 -2.976562 7.984375 -3.28125 C 7.984375 -3.875 7.769531 -4.34375 7.34375 -4.6875 C 6.925781 -5.03125 6.300781 -5.203125 5.46875 -5.203125 L 3 -5.203125 L 3 -1.21875 Z M 3 -10.1875 L 3 -6.296875 L 5.03125 -6.296875 C 5.46875 -6.296875 5.84375 -6.34375 6.15625 -6.4375 C 6.476562 -6.53125 6.742188 -6.660156 6.953125 -6.828125 C 7.171875 -7.003906 7.328125 -7.210938 7.421875 -7.453125 C 7.523438 -7.691406 7.578125 -7.957031 7.578125 -8.25 C 7.578125 -8.925781 7.375 -9.414062 6.96875 -9.71875 C 6.570312 -10.03125 5.945312 -10.1875 5.09375 -10.1875 Z M 5.09375 -11.40625 C 5.789062 -11.40625 6.394531 -11.335938 6.90625 -11.203125 C 7.414062 -11.066406 7.832031 -10.867188 8.15625 -10.609375 C 8.476562 -10.359375 8.71875 -10.046875 8.875 -9.671875 C 9.03125 -9.304688 9.109375 -8.894531 9.109375 -8.4375 C 9.109375 -8.15625 9.0625 -7.882812 8.96875 -7.625 C 8.882812 -7.363281 8.753906 -7.117188 8.578125 -6.890625 C 8.398438 -6.671875 8.175781 -6.472656 7.90625 -6.296875 C 7.644531 -6.117188 7.332031 -5.976562 6.96875 -5.875 C 7.8125 -5.707031 8.441406 -5.40625 8.859375 -4.96875 C 9.285156 -4.53125 9.5 -3.957031 9.5 -3.25 C 9.5 -2.769531 9.410156 -2.328125 9.234375 -1.921875 C 9.054688 -1.523438 8.796875 -1.179688 8.453125 -0.890625 C 8.109375 -0.609375 7.6875 -0.390625 7.1875 -0.234375 C 6.6875 -0.078125 6.117188 0 5.484375 0 L 1.453125 0 L 1.453125 -11.40625 Z M 5.09375 -11.40625 "/>
      </g>
    </g>
    <g style="fill:#0a0a0a;fill-opacity:1;">
      <g transform="translate(143.408314, 25.318828)">
        <path style="stroke:none" d="M 2.59375 -11.734375 L 2.59375 0 L 1.171875 0 L 1.171875 -11.734375 Z M 2.59375 -11.734375 "/>
      </g>
    </g>
    <g style="fill:#0a0a0a;fill-opacity:1;">
      <g transform="translate(147.164787, 25.318828)">
        <path style="stroke:none" d="M 4.515625 -8.1875 C 5.109375 -8.1875 5.640625 -8.085938 6.109375 -7.890625 C 6.585938 -7.703125 6.992188 -7.425781 7.328125 -7.0625 C 7.660156 -6.695312 7.914062 -6.257812 8.09375 -5.75 C 8.269531 -5.238281 8.359375 -4.664062 8.359375 -4.03125 C 8.359375 -3.394531 8.269531 -2.820312 8.09375 -2.3125 C 7.914062 -1.800781 7.660156 -1.363281 7.328125 -1 C 6.992188 -0.644531 6.585938 -0.367188 6.109375 -0.171875 C 5.640625 0.015625 5.109375 0.109375 4.515625 0.109375 C 3.921875 0.109375 3.382812 0.015625 2.90625 -0.171875 C 2.4375 -0.367188 2.035156 -0.644531 1.703125 -1 C 1.367188 -1.363281 1.113281 -1.800781 0.9375 -2.3125 C 0.757812 -2.820312 0.671875 -3.394531 0.671875 -4.03125 C 0.671875 -4.664062 0.757812 -5.238281 0.9375 -5.75 C 1.113281 -6.257812 1.367188 -6.695312 1.703125 -7.0625 C 2.035156 -7.425781 2.4375 -7.703125 2.90625 -7.890625 C 3.382812 -8.085938 3.921875 -8.1875 4.515625 -8.1875 Z M 4.515625 -1 C 5.316406 -1 5.910156 -1.265625 6.296875 -1.796875 C 6.691406 -2.328125 6.890625 -3.070312 6.890625 -4.03125 C 6.890625 -4.988281 6.691406 -5.734375 6.296875 -6.265625 C 5.910156 -6.804688 5.316406 -7.078125 4.515625 -7.078125 C 4.117188 -7.078125 3.769531 -7.003906 3.46875 -6.859375 C 3.164062 -6.722656 2.914062 -6.523438 2.71875 -6.265625 C 2.519531 -6.015625 2.367188 -5.695312 2.265625 -5.3125 C 2.171875 -4.9375 2.125 -4.507812 2.125 -4.03125 C 2.125 -3.070312 2.320312 -2.328125 2.71875 -1.796875 C 3.113281 -1.265625 3.710938 -1 4.515625 -1 Z M 4.515625 -1 "/>
      </g>
    </g>
    <g style="fill:#0a0a0a;fill-opacity:1;">
      <g transform="translate(156.189888, 25.318828)">
        <path style="stroke:none" d="M 6.734375 -6.625 C 6.691406 -6.570312 6.648438 -6.53125 6.609375 -6.5 C 6.566406 -6.46875 6.507812 -6.453125 6.4375 -6.453125 C 6.351562 -6.453125 6.265625 -6.484375 6.171875 -6.546875 C 6.078125 -6.609375 5.957031 -6.679688 5.8125 -6.765625 C 5.675781 -6.847656 5.503906 -6.921875 5.296875 -6.984375 C 5.085938 -7.046875 4.835938 -7.078125 4.546875 -7.078125 C 4.148438 -7.078125 3.800781 -7.003906 3.5 -6.859375 C 3.195312 -6.722656 2.941406 -6.523438 2.734375 -6.265625 C 2.523438 -6.003906 2.367188 -5.679688 2.265625 -5.296875 C 2.171875 -4.921875 2.125 -4.5 2.125 -4.03125 C 2.125 -3.539062 2.175781 -3.109375 2.28125 -2.734375 C 2.394531 -2.359375 2.550781 -2.039062 2.75 -1.78125 C 2.957031 -1.519531 3.207031 -1.320312 3.5 -1.1875 C 3.789062 -1.050781 4.113281 -0.984375 4.46875 -0.984375 C 4.8125 -0.984375 5.09375 -1.023438 5.3125 -1.109375 C 5.539062 -1.191406 5.726562 -1.28125 5.875 -1.375 C 6.019531 -1.476562 6.140625 -1.570312 6.234375 -1.65625 C 6.335938 -1.738281 6.4375 -1.78125 6.53125 -1.78125 C 6.65625 -1.78125 6.75 -1.734375 6.8125 -1.640625 L 7.203125 -1.125 C 7.023438 -0.90625 6.820312 -0.71875 6.59375 -0.5625 C 6.375 -0.414062 6.132812 -0.289062 5.875 -0.1875 C 5.625 -0.0820312 5.359375 -0.0078125 5.078125 0.03125 C 4.796875 0.0820312 4.507812 0.109375 4.21875 0.109375 C 3.71875 0.109375 3.25 0.015625 2.8125 -0.171875 C 2.382812 -0.359375 2.007812 -0.625 1.6875 -0.96875 C 1.363281 -1.320312 1.113281 -1.753906 0.9375 -2.265625 C 0.757812 -2.785156 0.671875 -3.375 0.671875 -4.03125 C 0.671875 -4.632812 0.753906 -5.191406 0.921875 -5.703125 C 1.085938 -6.210938 1.332031 -6.648438 1.65625 -7.015625 C 1.976562 -7.390625 2.375 -7.675781 2.84375 -7.875 C 3.3125 -8.082031 3.847656 -8.1875 4.453125 -8.1875 C 5.023438 -8.1875 5.523438 -8.09375 5.953125 -7.90625 C 6.390625 -7.726562 6.773438 -7.472656 7.109375 -7.140625 Z M 6.734375 -6.625 "/>
      </g>
    </g>
    <g style="fill:#0a0a0a;fill-opacity:1;">
      <g transform="translate(163.79039, 25.318828)">
        <path style="stroke:none" d="M 2.546875 -11.734375 L 2.546875 -4.828125 L 2.90625 -4.828125 C 3.019531 -4.828125 3.109375 -4.835938 3.171875 -4.859375 C 3.242188 -4.890625 3.320312 -4.953125 3.40625 -5.046875 L 5.953125 -7.78125 C 6.023438 -7.863281 6.101562 -7.929688 6.1875 -7.984375 C 6.269531 -8.035156 6.378906 -8.0625 6.515625 -8.0625 L 7.796875 -8.0625 L 4.828125 -4.90625 C 4.691406 -4.726562 4.539062 -4.585938 4.375 -4.484375 C 4.46875 -4.421875 4.550781 -4.347656 4.625 -4.265625 C 4.707031 -4.179688 4.78125 -4.085938 4.84375 -3.984375 L 8 0 L 6.734375 0 C 6.609375 0 6.503906 -0.0195312 6.421875 -0.0625 C 6.335938 -0.101562 6.257812 -0.175781 6.1875 -0.28125 L 3.546875 -3.578125 C 3.460938 -3.691406 3.378906 -3.765625 3.296875 -3.796875 C 3.222656 -3.835938 3.109375 -3.859375 2.953125 -3.859375 L 2.546875 -3.859375 L 2.546875 0 L 1.125 0 L 1.125 -11.734375 Z M 2.546875 -11.734375 "/>
      </g>
    </g>
    <g style="fill:#0a0a0a;fill-opacity:1;">
      <g transform="translate(171.87637, 25.318828)">
        <path style="stroke:none" d="M 5.8125 -6.734375 C 5.75 -6.617188 5.65625 -6.5625 5.53125 -6.5625 C 5.445312 -6.5625 5.351562 -6.585938 5.25 -6.640625 C 5.15625 -6.703125 5.035156 -6.769531 4.890625 -6.84375 C 4.742188 -6.914062 4.566406 -6.984375 4.359375 -7.046875 C 4.160156 -7.109375 3.921875 -7.140625 3.640625 -7.140625 C 3.398438 -7.140625 3.1875 -7.109375 3 -7.046875 C 2.8125 -6.984375 2.648438 -6.894531 2.515625 -6.78125 C 2.378906 -6.675781 2.273438 -6.550781 2.203125 -6.40625 C 2.128906 -6.269531 2.09375 -6.125 2.09375 -5.96875 C 2.09375 -5.757812 2.148438 -5.582031 2.265625 -5.4375 C 2.390625 -5.300781 2.550781 -5.179688 2.75 -5.078125 C 2.945312 -4.984375 3.171875 -4.894531 3.421875 -4.8125 C 3.671875 -4.738281 3.925781 -4.65625 4.1875 -4.5625 C 4.445312 -4.476562 4.703125 -4.382812 4.953125 -4.28125 C 5.203125 -4.175781 5.425781 -4.039062 5.625 -3.875 C 5.820312 -3.71875 5.976562 -3.523438 6.09375 -3.296875 C 6.207031 -3.066406 6.265625 -2.789062 6.265625 -2.46875 C 6.265625 -2.09375 6.195312 -1.75 6.0625 -1.4375 C 5.9375 -1.125 5.742188 -0.847656 5.484375 -0.609375 C 5.222656 -0.378906 4.90625 -0.195312 4.53125 -0.0625 C 4.15625 0.0625 3.71875 0.125 3.21875 0.125 C 2.65625 0.125 2.144531 0.0351562 1.6875 -0.140625 C 1.238281 -0.328125 0.851562 -0.566406 0.53125 -0.859375 L 0.875 -1.390625 C 0.914062 -1.460938 0.960938 -1.515625 1.015625 -1.546875 C 1.078125 -1.585938 1.148438 -1.609375 1.234375 -1.609375 C 1.335938 -1.609375 1.441406 -1.570312 1.546875 -1.5 C 1.648438 -1.425781 1.773438 -1.34375 1.921875 -1.25 C 2.078125 -1.15625 2.265625 -1.070312 2.484375 -1 C 2.703125 -0.925781 2.972656 -0.890625 3.296875 -0.890625 C 3.566406 -0.890625 3.804688 -0.925781 4.015625 -1 C 4.222656 -1.070312 4.394531 -1.164062 4.53125 -1.28125 C 4.675781 -1.40625 4.78125 -1.546875 4.84375 -1.703125 C 4.90625 -1.867188 4.9375 -2.039062 4.9375 -2.21875 C 4.9375 -2.445312 4.875 -2.632812 4.75 -2.78125 C 4.632812 -2.925781 4.476562 -3.046875 4.28125 -3.140625 C 4.09375 -3.242188 3.867188 -3.332031 3.609375 -3.40625 C 3.359375 -3.488281 3.101562 -3.570312 2.84375 -3.65625 C 2.582031 -3.75 2.328125 -3.847656 2.078125 -3.953125 C 1.828125 -4.054688 1.601562 -4.191406 1.40625 -4.359375 C 1.207031 -4.523438 1.046875 -4.726562 0.921875 -4.96875 C 0.804688 -5.207031 0.75 -5.5 0.75 -5.84375 C 0.75 -6.15625 0.8125 -6.453125 0.9375 -6.734375 C 1.0625 -7.023438 1.242188 -7.273438 1.484375 -7.484375 C 1.734375 -7.703125 2.035156 -7.875 2.390625 -8 C 2.742188 -8.125 3.148438 -8.1875 3.609375 -8.1875 C 4.140625 -8.1875 4.613281 -8.101562 5.03125 -7.9375 C 5.457031 -7.769531 5.828125 -7.539062 6.140625 -7.25 Z M 5.8125 -6.734375 "/>
      </g>
    </g>
    <g style="fill:#0a0a0a;fill-opacity:1;">
      <g transform="translate(89.9981, 56.220601)">
        <path style="stroke:none" d="M 15.28125 -16.84375 L 9.125 -16.84375 L 9.125 0 L 6.5625 0 L 6.5625 -16.84375 L 0.390625 -16.84375 L 0.390625 -19.015625 L 15.28125 -19.015625 Z M 15.28125 -16.84375 "/>
      </g>
    </g>
    <g style="fill:#0a0a0a;fill-opacity:1;">
      <g transform="translate(102.640317, 56.220601)">
        <path style="stroke:none" d="M 9.15625 -6.046875 C 8.0625 -6.015625 7.132812 -5.925781 6.375 -5.78125 C 5.613281 -5.644531 4.988281 -5.46875 4.5 -5.25 C 4.019531 -5.03125 3.671875 -4.769531 3.453125 -4.46875 C 3.234375 -4.164062 3.125 -3.832031 3.125 -3.46875 C 3.125 -3.113281 3.179688 -2.804688 3.296875 -2.546875 C 3.410156 -2.285156 3.566406 -2.070312 3.765625 -1.90625 C 3.972656 -1.75 4.207031 -1.632812 4.46875 -1.5625 C 4.738281 -1.488281 5.03125 -1.453125 5.34375 -1.453125 C 5.757812 -1.453125 6.140625 -1.492188 6.484375 -1.578125 C 6.828125 -1.660156 7.148438 -1.78125 7.453125 -1.9375 C 7.765625 -2.09375 8.054688 -2.28125 8.328125 -2.5 C 8.609375 -2.726562 8.882812 -2.984375 9.15625 -3.265625 Z M 1.53125 -11.546875 C 2.269531 -12.253906 3.066406 -12.785156 3.921875 -13.140625 C 4.785156 -13.492188 5.738281 -13.671875 6.78125 -13.671875 C 7.53125 -13.671875 8.195312 -13.546875 8.78125 -13.296875 C 9.363281 -13.054688 9.851562 -12.710938 10.25 -12.265625 C 10.644531 -11.828125 10.945312 -11.289062 11.15625 -10.65625 C 11.363281 -10.03125 11.46875 -9.34375 11.46875 -8.59375 L 11.46875 0 L 10.40625 0 C 10.175781 0 10 -0.0351562 9.875 -0.109375 C 9.757812 -0.179688 9.664062 -0.332031 9.59375 -0.5625 L 9.328125 -1.828125 C 8.972656 -1.503906 8.625 -1.210938 8.28125 -0.953125 C 7.945312 -0.703125 7.59375 -0.488281 7.21875 -0.3125 C 6.851562 -0.144531 6.457031 -0.015625 6.03125 0.078125 C 5.613281 0.171875 5.148438 0.21875 4.640625 0.21875 C 4.117188 0.21875 3.628906 0.144531 3.171875 0 C 2.710938 -0.144531 2.3125 -0.363281 1.96875 -0.65625 C 1.625 -0.945312 1.351562 -1.316406 1.15625 -1.765625 C 0.957031 -2.210938 0.859375 -2.742188 0.859375 -3.359375 C 0.859375 -3.890625 1.003906 -4.398438 1.296875 -4.890625 C 1.585938 -5.378906 2.0625 -5.8125 2.71875 -6.1875 C 3.375 -6.570312 4.226562 -6.882812 5.28125 -7.125 C 6.332031 -7.375 7.625 -7.515625 9.15625 -7.546875 L 9.15625 -8.59375 C 9.15625 -9.632812 8.925781 -10.421875 8.46875 -10.953125 C 8.019531 -11.492188 7.363281 -11.765625 6.5 -11.765625 C 5.914062 -11.765625 5.425781 -11.691406 5.03125 -11.546875 C 4.632812 -11.398438 4.289062 -11.234375 4 -11.046875 C 3.71875 -10.867188 3.472656 -10.707031 3.265625 -10.5625 C 3.054688 -10.414062 2.851562 -10.34375 2.65625 -10.34375 C 2.5 -10.34375 2.359375 -10.382812 2.234375 -10.46875 C 2.117188 -10.550781 2.023438 -10.65625 1.953125 -10.78125 Z M 1.53125 -11.546875 "/>
      </g>
    </g>
    <g style="fill:#0a0a0a;fill-opacity:1;">
      <g transform="translate(115.826522, 56.220601)">
        <path style="stroke:none" d="M 4.25 -3.234375 C 4.675781 -2.648438 5.148438 -2.238281 5.671875 -2 C 6.191406 -1.757812 6.757812 -1.640625 7.375 -1.640625 C 8.632812 -1.640625 9.597656 -2.085938 10.265625 -2.984375 C 10.941406 -3.878906 11.28125 -5.210938 11.28125 -6.984375 C 11.28125 -8.617188 10.984375 -9.820312 10.390625 -10.59375 C 9.796875 -11.375 8.945312 -11.765625 7.84375 -11.765625 C 7.070312 -11.765625 6.398438 -11.585938 5.828125 -11.234375 C 5.253906 -10.878906 4.726562 -10.378906 4.25 -9.734375 Z M 4.25 -11.5 C 4.8125 -12.15625 5.445312 -12.675781 6.15625 -13.0625 C 6.875 -13.457031 7.695312 -13.65625 8.625 -13.65625 C 9.40625 -13.65625 10.113281 -13.503906 10.75 -13.203125 C 11.382812 -12.898438 11.921875 -12.460938 12.359375 -11.890625 C 12.804688 -11.316406 13.144531 -10.625 13.375 -9.8125 C 13.613281 -9 13.734375 -8.085938 13.734375 -7.078125 C 13.734375 -5.984375 13.597656 -4.988281 13.328125 -4.09375 C 13.066406 -3.207031 12.6875 -2.445312 12.1875 -1.8125 C 11.6875 -1.175781 11.078125 -0.679688 10.359375 -0.328125 C 9.640625 0.015625 8.835938 0.1875 7.953125 0.1875 C 7.066406 0.1875 6.316406 0.0195312 5.703125 -0.3125 C 5.097656 -0.644531 4.570312 -1.113281 4.125 -1.71875 L 4 -0.5 C 3.9375 -0.164062 3.734375 0 3.390625 0 L 1.875 0 L 1.875 -19.546875 L 4.25 -19.546875 Z M 4.25 -11.5 "/>
      </g>
    </g>
    <g style="fill:#0a0a0a;fill-opacity:1;">
      <g transform="translate(130.684218, 56.220601)">
        <path style="stroke:none" d="M 9.703125 -11.21875 C 9.585938 -11.03125 9.421875 -10.9375 9.203125 -10.9375 C 9.066406 -10.9375 8.914062 -10.984375 8.75 -11.078125 C 8.582031 -11.171875 8.378906 -11.273438 8.140625 -11.390625 C 7.898438 -11.515625 7.609375 -11.628906 7.265625 -11.734375 C 6.929688 -11.835938 6.535156 -11.890625 6.078125 -11.890625 C 5.679688 -11.890625 5.320312 -11.835938 5 -11.734375 C 4.6875 -11.628906 4.414062 -11.488281 4.1875 -11.3125 C 3.957031 -11.132812 3.78125 -10.925781 3.65625 -10.6875 C 3.539062 -10.457031 3.484375 -10.207031 3.484375 -9.9375 C 3.484375 -9.59375 3.582031 -9.304688 3.78125 -9.078125 C 3.976562 -8.847656 4.238281 -8.644531 4.5625 -8.46875 C 4.894531 -8.300781 5.269531 -8.15625 5.6875 -8.03125 C 6.101562 -7.90625 6.53125 -7.769531 6.96875 -7.625 C 7.40625 -7.476562 7.832031 -7.316406 8.25 -7.140625 C 8.664062 -6.960938 9.035156 -6.738281 9.359375 -6.46875 C 9.691406 -6.207031 9.957031 -5.882812 10.15625 -5.5 C 10.351562 -5.113281 10.453125 -4.648438 10.453125 -4.109375 C 10.453125 -3.492188 10.34375 -2.921875 10.125 -2.390625 C 9.90625 -1.867188 9.578125 -1.414062 9.140625 -1.03125 C 8.703125 -0.644531 8.171875 -0.335938 7.546875 -0.109375 C 6.921875 0.109375 6.195312 0.21875 5.375 0.21875 C 4.4375 0.21875 3.585938 0.0664062 2.828125 -0.234375 C 2.066406 -0.546875 1.421875 -0.941406 0.890625 -1.421875 L 1.453125 -2.328125 C 1.515625 -2.441406 1.59375 -2.523438 1.6875 -2.578125 C 1.789062 -2.640625 1.914062 -2.671875 2.0625 -2.671875 C 2.226562 -2.671875 2.398438 -2.609375 2.578125 -2.484375 C 2.753906 -2.367188 2.96875 -2.234375 3.21875 -2.078125 C 3.46875 -1.929688 3.773438 -1.796875 4.140625 -1.671875 C 4.503906 -1.546875 4.953125 -1.484375 5.484375 -1.484375 C 5.953125 -1.484375 6.359375 -1.539062 6.703125 -1.65625 C 7.046875 -1.78125 7.332031 -1.941406 7.5625 -2.140625 C 7.789062 -2.347656 7.957031 -2.582031 8.0625 -2.84375 C 8.175781 -3.113281 8.234375 -3.398438 8.234375 -3.703125 C 8.234375 -4.078125 8.132812 -4.382812 7.9375 -4.625 C 7.738281 -4.863281 7.472656 -5.066406 7.140625 -5.234375 C 6.816406 -5.410156 6.445312 -5.5625 6.03125 -5.6875 C 5.613281 -5.820312 5.179688 -5.957031 4.734375 -6.09375 C 4.296875 -6.238281 3.867188 -6.398438 3.453125 -6.578125 C 3.035156 -6.765625 2.660156 -6.992188 2.328125 -7.265625 C 2.003906 -7.546875 1.742188 -7.882812 1.546875 -8.28125 C 1.347656 -8.6875 1.25 -9.175781 1.25 -9.75 C 1.25 -10.257812 1.351562 -10.75 1.5625 -11.21875 C 1.78125 -11.695312 2.09375 -12.113281 2.5 -12.46875 C 2.90625 -12.832031 3.398438 -13.117188 3.984375 -13.328125 C 4.578125 -13.546875 5.253906 -13.65625 6.015625 -13.65625 C 6.898438 -13.65625 7.691406 -13.515625 8.390625 -13.234375 C 9.097656 -12.953125 9.710938 -12.566406 10.234375 -12.078125 Z M 9.703125 -11.21875 "/>
      </g>
    </g>
    <g style="fill:#0a0a0a;fill-opacity:1;">
      <g transform="translate(142.172401, 56.220601)">
        <path style="stroke:none" d=""/>
      </g>
    </g>
    <g style="fill:#0a0a0a;fill-opacity:1;">
      <g transform="translate(148.96449, 56.220601)">
        <path style="stroke:none" d="M 9.09375 -2.046875 C 9.832031 -2.046875 10.46875 -2.128906 11 -2.296875 C 11.53125 -2.460938 11.960938 -2.695312 12.296875 -3 C 12.640625 -3.3125 12.890625 -3.675781 13.046875 -4.09375 C 13.210938 -4.507812 13.296875 -4.972656 13.296875 -5.484375 C 13.296875 -6.460938 12.945312 -7.234375 12.25 -7.796875 C 11.550781 -8.367188 10.5 -8.65625 9.09375 -8.65625 L 4.984375 -8.65625 L 4.984375 -2.046875 Z M 4.984375 -16.984375 L 4.984375 -10.5 L 8.390625 -10.5 C 9.109375 -10.5 9.734375 -10.578125 10.265625 -10.734375 C 10.804688 -10.890625 11.25 -11.109375 11.59375 -11.390625 C 11.945312 -11.671875 12.207031 -12.015625 12.375 -12.421875 C 12.539062 -12.828125 12.625 -13.269531 12.625 -13.75 C 12.625 -14.863281 12.285156 -15.679688 11.609375 -16.203125 C 10.941406 -16.722656 9.898438 -16.984375 8.484375 -16.984375 Z M 8.484375 -19.015625 C 9.648438 -19.015625 10.65625 -18.894531 11.5 -18.65625 C 12.351562 -18.425781 13.050781 -18.097656 13.59375 -17.671875 C 14.132812 -17.253906 14.53125 -16.738281 14.78125 -16.125 C 15.039062 -15.507812 15.171875 -14.816406 15.171875 -14.046875 C 15.171875 -13.578125 15.097656 -13.128906 14.953125 -12.703125 C 14.804688 -12.273438 14.585938 -11.875 14.296875 -11.5 C 14.003906 -11.125 13.632812 -10.789062 13.1875 -10.5 C 12.738281 -10.207031 12.21875 -9.96875 11.625 -9.78125 C 13.019531 -9.507812 14.066406 -9.007812 14.765625 -8.28125 C 15.472656 -7.550781 15.828125 -6.59375 15.828125 -5.40625 C 15.828125 -4.601562 15.675781 -3.867188 15.375 -3.203125 C 15.082031 -2.546875 14.648438 -1.976562 14.078125 -1.5 C 13.503906 -1.019531 12.800781 -0.648438 11.96875 -0.390625 C 11.144531 -0.128906 10.203125 0 9.140625 0 L 2.421875 0 L 2.421875 -19.015625 Z M 8.484375 -19.015625 "/>
      </g>
    </g>
    <g style="fill:#0a0a0a;fill-opacity:1;">
      <g transform="translate(165.851853, 56.220601)">
        <path style="stroke:none" d="M 4.3125 -19.546875 L 4.3125 0 L 1.953125 0 L 1.953125 -19.546875 Z M 4.3125 -19.546875 "/>
      </g>
    </g>
    <g style="fill:#0a0a0a;fill-opacity:1;">
      <g transform="translate(172.113316, 56.220601)">
        <path style="stroke:none" d="M 7.53125 -13.65625 C 8.507812 -13.65625 9.394531 -13.488281 10.1875 -13.15625 C 10.976562 -12.832031 11.648438 -12.367188 12.203125 -11.765625 C 12.765625 -11.160156 13.191406 -10.429688 13.484375 -9.578125 C 13.773438 -8.722656 13.921875 -7.769531 13.921875 -6.71875 C 13.921875 -5.664062 13.773438 -4.710938 13.484375 -3.859375 C 13.191406 -3.015625 12.765625 -2.289062 12.203125 -1.6875 C 11.648438 -1.082031 10.976562 -0.617188 10.1875 -0.296875 C 9.394531 0.0234375 8.507812 0.1875 7.53125 0.1875 C 6.539062 0.1875 5.648438 0.0234375 4.859375 -0.296875 C 4.066406 -0.617188 3.390625 -1.082031 2.828125 -1.6875 C 2.273438 -2.289062 1.847656 -3.015625 1.546875 -3.859375 C 1.253906 -4.710938 1.109375 -5.664062 1.109375 -6.71875 C 1.109375 -7.769531 1.253906 -8.722656 1.546875 -9.578125 C 1.847656 -10.429688 2.273438 -11.160156 2.828125 -11.765625 C 3.390625 -12.367188 4.066406 -12.832031 4.859375 -13.15625 C 5.648438 -13.488281 6.539062 -13.65625 7.53125 -13.65625 Z M 7.53125 -1.65625 C 8.863281 -1.65625 9.851562 -2.097656 10.5 -2.984375 C 11.15625 -3.878906 11.484375 -5.125 11.484375 -6.71875 C 11.484375 -8.3125 11.15625 -9.554688 10.5 -10.453125 C 9.851562 -11.347656 8.863281 -11.796875 7.53125 -11.796875 C 6.863281 -11.796875 6.28125 -11.679688 5.78125 -11.453125 C 5.28125 -11.222656 4.863281 -10.890625 4.53125 -10.453125 C 4.195312 -10.015625 3.945312 -9.476562 3.78125 -8.84375 C 3.625 -8.21875 3.546875 -7.507812 3.546875 -6.71875 C 3.546875 -5.125 3.875 -3.878906 4.53125 -2.984375 C 5.1875 -2.097656 6.1875 -1.65625 7.53125 -1.65625 Z M 7.53125 -1.65625 "/>
      </g>
    </g>
    <g style="fill:#0a0a0a;fill-opacity:1;">
      <g transform="translate(187.156731, 56.220601)">
        <path style="stroke:none" d="M 11.21875 -11.046875 C 11.144531 -10.953125 11.070312 -10.878906 11 -10.828125 C 10.9375 -10.773438 10.84375 -10.75 10.71875 -10.75 C 10.582031 -10.75 10.4375 -10.800781 10.28125 -10.90625 C 10.125 -11.019531 9.925781 -11.140625 9.6875 -11.265625 C 9.457031 -11.398438 9.171875 -11.523438 8.828125 -11.640625 C 8.484375 -11.753906 8.066406 -11.8125 7.578125 -11.8125 C 6.910156 -11.8125 6.320312 -11.691406 5.8125 -11.453125 C 5.3125 -11.222656 4.890625 -10.882812 4.546875 -10.4375 C 4.210938 -10 3.957031 -9.460938 3.78125 -8.828125 C 3.613281 -8.203125 3.53125 -7.5 3.53125 -6.71875 C 3.53125 -5.90625 3.617188 -5.179688 3.796875 -4.546875 C 3.984375 -3.921875 4.25 -3.394531 4.59375 -2.96875 C 4.9375 -2.539062 5.347656 -2.210938 5.828125 -1.984375 C 6.304688 -1.753906 6.847656 -1.640625 7.453125 -1.640625 C 8.023438 -1.640625 8.5 -1.707031 8.875 -1.84375 C 9.25 -1.988281 9.554688 -2.144531 9.796875 -2.3125 C 10.035156 -2.476562 10.238281 -2.628906 10.40625 -2.765625 C 10.570312 -2.898438 10.734375 -2.96875 10.890625 -2.96875 C 11.085938 -2.96875 11.238281 -2.894531 11.34375 -2.75 L 12 -1.890625 C 11.707031 -1.523438 11.375 -1.210938 11 -0.953125 C 10.632812 -0.703125 10.238281 -0.488281 9.8125 -0.3125 C 9.382812 -0.132812 8.9375 -0.0078125 8.46875 0.0625 C 8 0.144531 7.519531 0.1875 7.03125 0.1875 C 6.1875 0.1875 5.40625 0.03125 4.6875 -0.28125 C 3.96875 -0.59375 3.34375 -1.039062 2.8125 -1.625 C 2.28125 -2.207031 1.863281 -2.925781 1.5625 -3.78125 C 1.257812 -4.644531 1.109375 -5.625 1.109375 -6.71875 C 1.109375 -7.71875 1.25 -8.640625 1.53125 -9.484375 C 1.8125 -10.335938 2.21875 -11.070312 2.75 -11.6875 C 3.289062 -12.300781 3.953125 -12.78125 4.734375 -13.125 C 5.515625 -13.476562 6.410156 -13.65625 7.421875 -13.65625 C 8.367188 -13.65625 9.203125 -13.5 9.921875 -13.1875 C 10.648438 -12.882812 11.289062 -12.457031 11.84375 -11.90625 Z M 11.21875 -11.046875 "/>
      </g>
    </g>
    <g style="fill:#0a0a0a;fill-opacity:1;">
      <g transform="translate(199.825572, 56.220601)">
        <path style="stroke:none" d="M 4.25 -19.546875 L 4.25 -8.03125 L 4.859375 -8.03125 C 5.035156 -8.03125 5.179688 -8.054688 5.296875 -8.109375 C 5.421875 -8.160156 5.546875 -8.257812 5.671875 -8.40625 L 9.921875 -12.953125 C 10.046875 -13.109375 10.175781 -13.226562 10.3125 -13.3125 C 10.445312 -13.394531 10.628906 -13.4375 10.859375 -13.4375 L 13 -13.4375 L 8.046875 -8.171875 C 7.804688 -7.867188 7.550781 -7.632812 7.28125 -7.46875 C 7.4375 -7.363281 7.578125 -7.238281 7.703125 -7.09375 C 7.835938 -6.957031 7.960938 -6.800781 8.078125 -6.625 L 13.328125 0 L 11.21875 0 C 11.019531 0 10.847656 -0.03125 10.703125 -0.09375 C 10.554688 -0.164062 10.429688 -0.289062 10.328125 -0.46875 L 5.90625 -5.96875 C 5.769531 -6.15625 5.632812 -6.273438 5.5 -6.328125 C 5.375 -6.390625 5.179688 -6.421875 4.921875 -6.421875 L 4.25 -6.421875 L 4.25 0 L 1.875 0 L 1.875 -19.546875 Z M 4.25 -19.546875 "/>
      </g>
    </g>
  </g>
</svg>
