<svg xmlns="http://www.w3.org/2000/svg" xmlns:xlink="http://www.w3.org/1999/xlink" width="319" zoomAndPan="magnify" viewBox="0 0 239.25 77.249999" height="103" preserveAspectRatio="xMidYMid meet" version="1.0">
    <style>
    g:not(.icon_bg) { fill: #1B1B18 } @media (prefers-color-scheme:dark) { g > g:not(.icon_bg) { fill: #fff } }
  </style>
  <defs><g/><clipPath id="f130c62d9a"><path d="M 0.777344 0.0390625 L 76.988281 0.0390625 L 76.988281 75.949219 L 0.777344 75.949219 Z M 0.777344 0.0390625 " clip-rule="nonzero"/></clipPath><clipPath id="9e83a06fc0"><path d="M 14.148438 0.0390625 L 63.359375 0.0390625 C 66.90625 0.0390625 70.304688 1.445312 72.8125 3.953125 C 75.320312 6.460938 76.730469 9.863281 76.730469 13.40625 L 76.730469 62.582031 C 76.730469 66.125 75.320312 69.527344 72.8125 72.035156 C 70.304688 74.542969 66.90625 75.949219 63.359375 75.949219 L 14.148438 75.949219 C 10.601562 75.949219 7.203125 74.542969 4.695312 72.035156 C 2.1875 69.527344 0.777344 66.125 0.777344 62.582031 L 0.777344 13.40625 C 0.777344 9.863281 2.1875 6.460938 4.695312 3.953125 C 7.203125 1.445312 10.601562 0.0390625 14.148438 0.0390625 Z M 14.148438 0.0390625 " clip-rule="nonzero"/></clipPath><clipPath id="c701edf18d"><path d="M 0.777344 0.0390625 L 76.691406 0.0390625 L 76.691406 75.949219 L 0.777344 75.949219 Z M 0.777344 0.0390625 " clip-rule="nonzero"/></clipPath><clipPath id="c4ba252c0a"><path d="M 14.148438 0.0390625 L 63.359375 0.0390625 C 66.90625 0.0390625 70.304688 1.445312 72.8125 3.953125 C 75.320312 6.460938 76.730469 9.863281 76.730469 13.40625 L 76.730469 62.582031 C 76.730469 66.125 75.320312 69.527344 72.8125 72.035156 C 70.304688 74.542969 66.90625 75.949219 63.359375 75.949219 L 14.148438 75.949219 C 10.601562 75.949219 7.203125 74.542969 4.695312 72.035156 C 2.1875 69.527344 0.777344 66.125 0.777344 62.582031 L 0.777344 13.40625 C 0.777344 9.863281 2.1875 6.460938 4.695312 3.953125 C 7.203125 1.445312 10.601562 0.0390625 14.148438 0.0390625 Z M 14.148438 0.0390625 " clip-rule="nonzero"/></clipPath><linearGradient x1="0.0325036" gradientTransform="matrix(0.296535, 0, 0, 0.296535, 0.77855, 0.0376)" y1="-0.0314964" x2="256.031994" gradientUnits="userSpaceOnUse" y2="255.969004" id="106c3cddce"><stop stop-opacity="1" stop-color="rgb(0.389099%, 9.408569%, 33.329773%)" offset="0"/><stop stop-opacity="1" stop-color="rgb(0.395203%, 9.460449%, 33.467102%)" offset="0.0078125"/><stop stop-opacity="1" stop-color="rgb(0.40741%, 9.565735%, 33.74176%)" offset="0.015625"/><stop stop-opacity="1" stop-color="rgb(0.419617%, 9.669495%, 34.017944%)" offset="0.0234375"/><stop stop-opacity="1" stop-color="rgb(0.431824%, 9.773254%, 34.294128%)" offset="0.03125"/><stop stop-opacity="1" stop-color="rgb(0.444031%, 9.87854%, 34.568787%)" offset="0.0390625"/><stop stop-opacity="1" stop-color="rgb(0.457764%, 9.9823%, 34.844971%)" offset="0.046875"/><stop stop-opacity="1" stop-color="rgb(0.469971%, 10.08606%, 35.121155%)" offset="0.0546875"/><stop stop-opacity="1" stop-color="rgb(0.482178%, 10.189819%, 35.397339%)" offset="0.0625"/><stop stop-opacity="1" stop-color="rgb(0.494385%, 10.295105%, 35.671997%)" offset="0.0703125"/><stop stop-opacity="1" stop-color="rgb(0.506592%, 10.398865%, 35.948181%)" offset="0.078125"/><stop stop-opacity="1" stop-color="rgb(0.518799%, 10.502625%, 36.224365%)" offset="0.0859375"/><stop stop-opacity="1" stop-color="rgb(0.531006%, 10.60791%, 36.499023%)" offset="0.09375"/><stop stop-opacity="1" stop-color="rgb(0.543213%, 10.71167%, 36.775208%)" offset="0.101562"/><stop stop-opacity="1" stop-color="rgb(0.55542%, 10.81543%, 37.051392%)" offset="0.109375"/><stop stop-opacity="1" stop-color="rgb(0.567627%, 10.919189%, 37.32605%)" offset="0.117188"/><stop stop-opacity="1" stop-color="rgb(0.579834%, 11.024475%, 37.602234%)" offset="0.125"/><stop stop-opacity="1" stop-color="rgb(0.592041%, 11.128235%, 37.878418%)" offset="0.132812"/><stop stop-opacity="1" stop-color="rgb(0.605774%, 11.231995%, 38.153076%)" offset="0.140625"/><stop stop-opacity="1" stop-color="rgb(0.617981%, 11.33728%, 38.42926%)" offset="0.148438"/><stop stop-opacity="1" stop-color="rgb(0.630188%, 11.44104%, 38.705444%)" offset="0.15625"/><stop stop-opacity="1" stop-color="rgb(0.642395%, 11.5448%, 38.981628%)" offset="0.164062"/><stop stop-opacity="1" stop-color="rgb(0.654602%, 11.64856%, 39.256287%)" offset="0.171875"/><stop stop-opacity="1" stop-color="rgb(0.666809%, 11.753845%, 39.532471%)" offset="0.179688"/><stop stop-opacity="1" stop-color="rgb(0.679016%, 11.857605%, 39.808655%)" offset="0.1875"/><stop stop-opacity="1" stop-color="rgb(0.691223%, 11.961365%, 40.083313%)" offset="0.195313"/><stop stop-opacity="1" stop-color="rgb(0.70343%, 12.06665%, 40.359497%)" offset="0.203125"/><stop stop-opacity="1" stop-color="rgb(0.715637%, 12.17041%, 40.635681%)" offset="0.210938"/><stop stop-opacity="1" stop-color="rgb(0.727844%, 12.27417%, 40.910339%)" offset="0.21875"/><stop stop-opacity="1" stop-color="rgb(0.741577%, 12.37793%, 41.186523%)" offset="0.226563"/><stop stop-opacity="1" stop-color="rgb(0.753784%, 12.483215%, 41.462708%)" offset="0.234375"/><stop stop-opacity="1" stop-color="rgb(0.765991%, 12.586975%, 41.737366%)" offset="0.242188"/><stop stop-opacity="1" stop-color="rgb(0.778198%, 12.690735%, 42.01355%)" offset="0.25"/><stop stop-opacity="1" stop-color="rgb(0.790405%, 12.796021%, 42.289734%)" offset="0.257813"/><stop stop-opacity="1" stop-color="rgb(0.802612%, 12.89978%, 42.565918%)" offset="0.265625"/><stop stop-opacity="1" stop-color="rgb(0.814819%, 13.00354%, 42.840576%)" offset="0.273438"/><stop stop-opacity="1" stop-color="rgb(0.827026%, 13.1073%, 43.11676%)" offset="0.28125"/><stop stop-opacity="1" stop-color="rgb(0.839233%, 13.212585%, 43.392944%)" offset="0.289063"/><stop stop-opacity="1" stop-color="rgb(0.85144%, 13.316345%, 43.667603%)" offset="0.296875"/><stop stop-opacity="1" stop-color="rgb(0.863647%, 13.420105%, 43.943787%)" offset="0.304688"/><stop stop-opacity="1" stop-color="rgb(0.87738%, 13.525391%, 44.219971%)" offset="0.3125"/><stop stop-opacity="1" stop-color="rgb(0.889587%, 13.62915%, 44.494629%)" offset="0.320313"/><stop stop-opacity="1" stop-color="rgb(0.901794%, 13.73291%, 44.770813%)" offset="0.328125"/><stop stop-opacity="1" stop-color="rgb(0.914001%, 13.83667%, 45.046997%)" offset="0.335938"/><stop stop-opacity="1" stop-color="rgb(0.926208%, 13.941956%, 45.321655%)" offset="0.34375"/><stop stop-opacity="1" stop-color="rgb(0.938416%, 14.045715%, 45.597839%)" offset="0.351563"/><stop stop-opacity="1" stop-color="rgb(0.950623%, 14.149475%, 45.874023%)" offset="0.359375"/><stop stop-opacity="1" stop-color="rgb(0.96283%, 14.254761%, 46.148682%)" offset="0.367188"/><stop stop-opacity="1" stop-color="rgb(0.975037%, 14.358521%, 46.424866%)" offset="0.375"/><stop stop-opacity="1" stop-color="rgb(0.987244%, 14.46228%, 46.70105%)" offset="0.382813"/><stop stop-opacity="1" stop-color="rgb(0.999451%, 14.56604%, 46.977234%)" offset="0.390625"/><stop stop-opacity="1" stop-color="rgb(1.011658%, 14.671326%, 47.251892%)" offset="0.398438"/><stop stop-opacity="1" stop-color="rgb(1.025391%, 14.775085%, 47.528076%)" offset="0.40625"/><stop stop-opacity="1" stop-color="rgb(1.037598%, 14.878845%, 47.80426%)" offset="0.414063"/><stop stop-opacity="1" stop-color="rgb(1.049805%, 14.982605%, 48.078918%)" offset="0.421875"/><stop stop-opacity="1" stop-color="rgb(1.062012%, 15.087891%, 48.355103%)" offset="0.429688"/><stop stop-opacity="1" stop-color="rgb(1.074219%, 15.19165%, 48.631287%)" offset="0.4375"/><stop stop-opacity="1" stop-color="rgb(1.086426%, 15.29541%, 48.905945%)" offset="0.445313"/><stop stop-opacity="1" stop-color="rgb(1.098633%, 15.400696%, 49.182129%)" offset="0.453125"/><stop stop-opacity="1" stop-color="rgb(1.11084%, 15.504456%, 49.458313%)" offset="0.460938"/><stop stop-opacity="1" stop-color="rgb(1.123047%, 15.608215%, 49.732971%)" offset="0.46875"/><stop stop-opacity="1" stop-color="rgb(1.135254%, 15.711975%, 50.009155%)" offset="0.476563"/><stop stop-opacity="1" stop-color="rgb(1.147461%, 15.817261%, 50.285339%)" offset="0.484375"/><stop stop-opacity="1" stop-color="rgb(1.161194%, 15.921021%, 50.561523%)" offset="0.492188"/><stop stop-opacity="1" stop-color="rgb(1.173401%, 16.02478%, 50.836182%)" offset="0.499999"/><stop stop-opacity="1" stop-color="rgb(1.179504%, 16.078186%, 50.975037%)" offset="0.5"/><stop stop-opacity="1" stop-color="rgb(1.18866%, 16.127014%, 51.106262%)" offset="0.500001"/><stop stop-opacity="1" stop-color="rgb(1.197815%, 16.175842%, 51.239014%)" offset="0.507812"/><stop stop-opacity="1" stop-color="rgb(1.20697%, 16.22467%, 51.370239%)" offset="0.515625"/><stop stop-opacity="1" stop-color="rgb(1.225281%, 16.322327%, 51.63269%)" offset="0.523438"/><stop stop-opacity="1" stop-color="rgb(1.243591%, 16.419983%, 51.896667%)" offset="0.53125"/><stop stop-opacity="1" stop-color="rgb(1.261902%, 16.517639%, 52.159119%)" offset="0.539062"/><stop stop-opacity="1" stop-color="rgb(1.280212%, 16.616821%, 52.423096%)" offset="0.546875"/><stop stop-opacity="1" stop-color="rgb(1.296997%, 16.714478%, 52.687073%)" offset="0.554687"/><stop stop-opacity="1" stop-color="rgb(1.315308%, 16.812134%, 52.949524%)" offset="0.5625"/><stop stop-opacity="1" stop-color="rgb(1.333618%, 16.90979%, 53.213501%)" offset="0.570312"/><stop stop-opacity="1" stop-color="rgb(1.351929%, 17.007446%, 53.475952%)" offset="0.578125"/><stop stop-opacity="1" stop-color="rgb(1.370239%, 17.106628%, 53.739929%)" offset="0.585938"/><stop stop-opacity="1" stop-color="rgb(1.38855%, 17.204285%, 54.003906%)" offset="0.59375"/><stop stop-opacity="1" stop-color="rgb(1.40686%, 17.301941%, 54.266357%)" offset="0.601562"/><stop stop-opacity="1" stop-color="rgb(1.425171%, 17.399597%, 54.530334%)" offset="0.609375"/><stop stop-opacity="1" stop-color="rgb(1.443481%, 17.497253%, 54.794312%)" offset="0.617188"/><stop stop-opacity="1" stop-color="rgb(1.461792%, 17.596436%, 55.056763%)" offset="0.625"/><stop stop-opacity="1" stop-color="rgb(1.480103%, 17.694092%, 55.32074%)" offset="0.632812"/><stop stop-opacity="1" stop-color="rgb(1.498413%, 17.791748%, 55.583191%)" offset="0.640625"/><stop stop-opacity="1" stop-color="rgb(1.516724%, 17.889404%, 55.847168%)" offset="0.648438"/><stop stop-opacity="1" stop-color="rgb(1.535034%, 17.987061%, 56.111145%)" offset="0.65625"/><stop stop-opacity="1" stop-color="rgb(1.553345%, 18.084717%, 56.373596%)" offset="0.664062"/><stop stop-opacity="1" stop-color="rgb(1.571655%, 18.183899%, 56.637573%)" offset="0.671875"/><stop stop-opacity="1" stop-color="rgb(1.589966%, 18.281555%, 56.900024%)" offset="0.679687"/><stop stop-opacity="1" stop-color="rgb(1.608276%, 18.379211%, 57.164001%)" offset="0.6875"/><stop stop-opacity="1" stop-color="rgb(1.626587%, 18.476868%, 57.427979%)" offset="0.695313"/><stop stop-opacity="1" stop-color="rgb(1.644897%, 18.574524%, 57.69043%)" offset="0.703125"/><stop stop-opacity="1" stop-color="rgb(1.663208%, 18.673706%, 57.954407%)" offset="0.710938"/><stop stop-opacity="1" stop-color="rgb(1.681519%, 18.771362%, 58.216858%)" offset="0.71875"/><stop stop-opacity="1" stop-color="rgb(1.699829%, 18.869019%, 58.480835%)" offset="0.726562"/><stop stop-opacity="1" stop-color="rgb(1.71814%, 18.966675%, 58.744812%)" offset="0.734375"/><stop stop-opacity="1" stop-color="rgb(1.73645%, 19.064331%, 59.007263%)" offset="0.742188"/><stop stop-opacity="1" stop-color="rgb(1.754761%, 19.163513%, 59.27124%)" offset="0.75"/><stop stop-opacity="1" stop-color="rgb(1.773071%, 19.261169%, 59.533691%)" offset="0.757812"/><stop stop-opacity="1" stop-color="rgb(1.791382%, 19.358826%, 59.797668%)" offset="0.765625"/><stop stop-opacity="1" stop-color="rgb(1.809692%, 19.456482%, 60.061646%)" offset="0.773438"/><stop stop-opacity="1" stop-color="rgb(1.828003%, 19.554138%, 60.324097%)" offset="0.78125"/><stop stop-opacity="1" stop-color="rgb(1.846313%, 19.651794%, 60.588074%)" offset="0.789062"/><stop stop-opacity="1" stop-color="rgb(1.864624%, 19.750977%, 60.850525%)" offset="0.796875"/><stop stop-opacity="1" stop-color="rgb(1.882935%, 19.848633%, 61.114502%)" offset="0.804688"/><stop stop-opacity="1" stop-color="rgb(1.901245%, 19.946289%, 61.378479%)" offset="0.8125"/><stop stop-opacity="1" stop-color="rgb(1.919556%, 20.043945%, 61.64093%)" offset="0.820313"/><stop stop-opacity="1" stop-color="rgb(1.937866%, 20.141602%, 61.904907%)" offset="0.828125"/><stop stop-opacity="1" stop-color="rgb(1.956177%, 20.240784%, 62.167358%)" offset="0.835938"/><stop stop-opacity="1" stop-color="rgb(1.974487%, 20.33844%, 62.431335%)" offset="0.84375"/><stop stop-opacity="1" stop-color="rgb(1.992798%, 20.436096%, 62.695312%)" offset="0.851562"/><stop stop-opacity="1" stop-color="rgb(2.011108%, 20.533752%, 62.957764%)" offset="0.859375"/><stop stop-opacity="1" stop-color="rgb(2.029419%, 20.631409%, 63.221741%)" offset="0.867188"/><stop stop-opacity="1" stop-color="rgb(2.047729%, 20.730591%, 63.484192%)" offset="0.875"/><stop stop-opacity="1" stop-color="rgb(2.06604%, 20.828247%, 63.748169%)" offset="0.882812"/><stop stop-opacity="1" stop-color="rgb(2.084351%, 20.925903%, 64.012146%)" offset="0.890625"/><stop stop-opacity="1" stop-color="rgb(2.102661%, 21.02356%, 64.274597%)" offset="0.898438"/><stop stop-opacity="1" stop-color="rgb(2.119446%, 21.121216%, 64.538574%)" offset="0.90625"/><stop stop-opacity="1" stop-color="rgb(2.137756%, 21.220398%, 64.801025%)" offset="0.914063"/><stop stop-opacity="1" stop-color="rgb(2.156067%, 21.318054%, 65.065002%)" offset="0.921875"/><stop stop-opacity="1" stop-color="rgb(2.174377%, 21.41571%, 65.328979%)" offset="0.929688"/><stop stop-opacity="1" stop-color="rgb(2.192688%, 21.513367%, 65.591431%)" offset="0.9375"/><stop stop-opacity="1" stop-color="rgb(2.210999%, 21.611023%, 65.855408%)" offset="0.945312"/><stop stop-opacity="1" stop-color="rgb(2.229309%, 21.708679%, 66.117859%)" offset="0.953125"/><stop stop-opacity="1" stop-color="rgb(2.24762%, 21.807861%, 66.381836%)" offset="0.960938"/><stop stop-opacity="1" stop-color="rgb(2.26593%, 21.905518%, 66.645813%)" offset="0.96875"/><stop stop-opacity="1" stop-color="rgb(2.284241%, 22.003174%, 66.908264%)" offset="0.976562"/><stop stop-opacity="1" stop-color="rgb(2.302551%, 22.10083%, 67.172241%)" offset="0.984375"/><stop stop-opacity="1" stop-color="rgb(2.320862%, 22.198486%, 67.434692%)" offset="0.992187"/><stop stop-opacity="1" stop-color="rgb(2.339172%, 22.297668%, 67.698669%)" offset="1"/></linearGradient><clipPath id="d41602eca6"><rect x="0" width="77" y="0" height="76"/></clipPath></defs><g clip-path="url(#f130c62d9a)"><g clip-path="url(#9e83a06fc0)"><g transform="matrix(1, 0, 0, 1, 0.000000000000000111, 0.000000000000000807)"><g clip-path="url(#d41602eca6)"><g clip-path="url(#c701edf18d)"><g clip-path="url(#c4ba252c0a)"><path fill="url(#106c3cddce)" d="M 0.777344 0.0390625 L 0.777344 75.949219 L 76.691406 75.949219 L 76.691406 0.0390625 Z M 0.777344 0.0390625 " fill-rule="nonzero"/></g></g></g></g></g></g><g fill="#0a0a0a" fill-opacity="1"><g transform="translate(85.642881, 26.295312)"><g><path d="M 1.109375 0 L 1.109375 -11.40625 L 5.515625 -11.40625 C 6.148438 -11.40625 6.703125 -11.269531 7.171875 -11 C 7.648438 -10.738281 8.019531 -10.382812 8.28125 -9.9375 C 8.550781 -9.5 8.6875 -9.007812 8.6875 -8.46875 C 8.6875 -7.851562 8.519531 -7.304688 8.1875 -6.828125 C 7.863281 -6.347656 7.429688 -6.019531 6.890625 -5.84375 L 6.875 -6.234375 C 7.613281 -6.015625 8.191406 -5.640625 8.609375 -5.109375 C 9.035156 -4.585938 9.25 -3.953125 9.25 -3.203125 C 9.25 -2.535156 9.109375 -1.960938 8.828125 -1.484375 C 8.546875 -1.015625 8.148438 -0.648438 7.640625 -0.390625 C 7.140625 -0.128906 6.550781 0 5.875 0 Z M 2.28125 -1.109375 L 5.59375 -1.109375 C 6.0625 -1.109375 6.476562 -1.191406 6.84375 -1.359375 C 7.21875 -1.523438 7.507812 -1.757812 7.71875 -2.0625 C 7.9375 -2.375 8.046875 -2.75 8.046875 -3.1875 C 8.046875 -3.601562 7.945312 -3.976562 7.75 -4.3125 C 7.550781 -4.65625 7.285156 -4.925781 6.953125 -5.125 C 6.617188 -5.332031 6.238281 -5.4375 5.8125 -5.4375 L 2.28125 -5.4375 Z M 2.28125 -6.546875 L 5.5 -6.546875 C 5.863281 -6.546875 6.195312 -6.628906 6.5 -6.796875 C 6.800781 -6.960938 7.039062 -7.1875 7.21875 -7.46875 C 7.394531 -7.757812 7.484375 -8.097656 7.484375 -8.484375 C 7.484375 -9.023438 7.296875 -9.460938 6.921875 -9.796875 C 6.554688 -10.140625 6.082031 -10.3125 5.5 -10.3125 L 2.28125 -10.3125 Z M 2.28125 -6.546875 "/></g></g></g><g fill="#0a0a0a" fill-opacity="1"><g transform="translate(95.354135, 26.295312)"><g><path d="M 1.265625 0 L 1.265625 -11.640625 L 2.4375 -11.640625 L 2.4375 0 Z M 1.265625 0 "/></g></g></g><g fill="#0a0a0a" fill-opacity="1"><g transform="translate(99.053286, 26.295312)"><g><path d="M 3.5625 0.234375 C 2.914062 0.234375 2.375 0.117188 1.9375 -0.109375 C 1.5 -0.335938 1.171875 -0.644531 0.953125 -1.03125 C 0.742188 -1.414062 0.640625 -1.835938 0.640625 -2.296875 C 0.640625 -2.765625 0.734375 -3.160156 0.921875 -3.484375 C 1.109375 -3.816406 1.363281 -4.085938 1.6875 -4.296875 C 2.007812 -4.515625 2.382812 -4.675781 2.8125 -4.78125 C 3.25 -4.882812 3.726562 -4.976562 4.25 -5.0625 C 4.769531 -5.144531 5.28125 -5.21875 5.78125 -5.28125 C 6.289062 -5.34375 6.738281 -5.398438 7.125 -5.453125 L 6.703125 -5.203125 C 6.722656 -6.046875 6.5625 -6.671875 6.21875 -7.078125 C 5.875 -7.484375 5.273438 -7.6875 4.421875 -7.6875 C 3.835938 -7.6875 3.34375 -7.554688 2.9375 -7.296875 C 2.539062 -7.035156 2.257812 -6.617188 2.09375 -6.046875 L 0.953125 -6.375 C 1.148438 -7.144531 1.546875 -7.738281 2.140625 -8.15625 C 2.734375 -8.582031 3.5 -8.796875 4.4375 -8.796875 C 5.21875 -8.796875 5.878906 -8.644531 6.421875 -8.34375 C 6.972656 -8.050781 7.363281 -7.628906 7.59375 -7.078125 C 7.695312 -6.828125 7.765625 -6.550781 7.796875 -6.25 C 7.828125 -5.945312 7.84375 -5.632812 7.84375 -5.3125 L 7.84375 0 L 6.8125 0 L 6.8125 -2.140625 L 7.109375 -2.015625 C 6.816406 -1.285156 6.363281 -0.726562 5.75 -0.34375 C 5.144531 0.0390625 4.414062 0.234375 3.5625 0.234375 Z M 3.6875 -0.765625 C 4.226562 -0.765625 4.703125 -0.863281 5.109375 -1.0625 C 5.523438 -1.257812 5.851562 -1.523438 6.09375 -1.859375 C 6.34375 -2.203125 6.503906 -2.585938 6.578125 -3.015625 C 6.640625 -3.296875 6.671875 -3.597656 6.671875 -3.921875 C 6.679688 -4.253906 6.6875 -4.503906 6.6875 -4.671875 L 7.140625 -4.4375 C 6.742188 -4.382812 6.3125 -4.332031 5.84375 -4.28125 C 5.382812 -4.226562 4.929688 -4.164062 4.484375 -4.09375 C 4.035156 -4.03125 3.632812 -3.945312 3.28125 -3.84375 C 3.039062 -3.78125 2.804688 -3.6875 2.578125 -3.5625 C 2.347656 -3.4375 2.160156 -3.269531 2.015625 -3.0625 C 1.867188 -2.851562 1.796875 -2.597656 1.796875 -2.296875 C 1.796875 -2.046875 1.859375 -1.804688 1.984375 -1.578125 C 2.109375 -1.347656 2.304688 -1.15625 2.578125 -1 C 2.859375 -0.84375 3.226562 -0.765625 3.6875 -0.765625 Z M 3.6875 -0.765625 "/></g></g></g><g fill="#0a0a0a" fill-opacity="1"><g transform="translate(107.853611, 26.295312)"><g><path d="M 1.109375 0 L 1.109375 -11.40625 L 5.515625 -11.40625 C 6.148438 -11.40625 6.703125 -11.269531 7.171875 -11 C 7.648438 -10.738281 8.019531 -10.382812 8.28125 -9.9375 C 8.550781 -9.5 8.6875 -9.007812 8.6875 -8.46875 C 8.6875 -7.851562 8.519531 -7.304688 8.1875 -6.828125 C 7.863281 -6.347656 7.429688 -6.019531 6.890625 -5.84375 L 6.875 -6.234375 C 7.613281 -6.015625 8.191406 -5.640625 8.609375 -5.109375 C 9.035156 -4.585938 9.25 -3.953125 9.25 -3.203125 C 9.25 -2.535156 9.109375 -1.960938 8.828125 -1.484375 C 8.546875 -1.015625 8.148438 -0.648438 7.640625 -0.390625 C 7.140625 -0.128906 6.550781 0 5.875 0 Z M 2.28125 -1.109375 L 5.59375 -1.109375 C 6.0625 -1.109375 6.476562 -1.191406 6.84375 -1.359375 C 7.21875 -1.523438 7.507812 -1.757812 7.71875 -2.0625 C 7.9375 -2.375 8.046875 -2.75 8.046875 -3.1875 C 8.046875 -3.601562 7.945312 -3.976562 7.75 -4.3125 C 7.550781 -4.65625 7.285156 -4.925781 6.953125 -5.125 C 6.617188 -5.332031 6.238281 -5.4375 5.8125 -5.4375 L 2.28125 -5.4375 Z M 2.28125 -6.546875 L 5.5 -6.546875 C 5.863281 -6.546875 6.195312 -6.628906 6.5 -6.796875 C 6.800781 -6.960938 7.039062 -7.1875 7.21875 -7.46875 C 7.394531 -7.757812 7.484375 -8.097656 7.484375 -8.484375 C 7.484375 -9.023438 7.296875 -9.460938 6.921875 -9.796875 C 6.554688 -10.140625 6.082031 -10.3125 5.5 -10.3125 L 2.28125 -10.3125 Z M 2.28125 -6.546875 "/></g></g></g><g fill="#0a0a0a" fill-opacity="1"><g transform="translate(117.564864, 26.295312)"><g><path d="M 1.265625 0 L 1.265625 -11.640625 L 2.4375 -11.640625 L 2.4375 0 Z M 1.265625 0 "/></g></g></g><g fill="#0a0a0a" fill-opacity="1"><g transform="translate(121.264015, 26.295312)"><g><path d="M 3.5625 0.234375 C 2.914062 0.234375 2.375 0.117188 1.9375 -0.109375 C 1.5 -0.335938 1.171875 -0.644531 0.953125 -1.03125 C 0.742188 -1.414062 0.640625 -1.835938 0.640625 -2.296875 C 0.640625 -2.765625 0.734375 -3.160156 0.921875 -3.484375 C 1.109375 -3.816406 1.363281 -4.085938 1.6875 -4.296875 C 2.007812 -4.515625 2.382812 -4.675781 2.8125 -4.78125 C 3.25 -4.882812 3.726562 -4.976562 4.25 -5.0625 C 4.769531 -5.144531 5.28125 -5.21875 5.78125 -5.28125 C 6.289062 -5.34375 6.738281 -5.398438 7.125 -5.453125 L 6.703125 -5.203125 C 6.722656 -6.046875 6.5625 -6.671875 6.21875 -7.078125 C 5.875 -7.484375 5.273438 -7.6875 4.421875 -7.6875 C 3.835938 -7.6875 3.34375 -7.554688 2.9375 -7.296875 C 2.539062 -7.035156 2.257812 -6.617188 2.09375 -6.046875 L 0.953125 -6.375 C 1.148438 -7.144531 1.546875 -7.738281 2.140625 -8.15625 C 2.734375 -8.582031 3.5 -8.796875 4.4375 -8.796875 C 5.21875 -8.796875 5.878906 -8.644531 6.421875 -8.34375 C 6.972656 -8.050781 7.363281 -7.628906 7.59375 -7.078125 C 7.695312 -6.828125 7.765625 -6.550781 7.796875 -6.25 C 7.828125 -5.945312 7.84375 -5.632812 7.84375 -5.3125 L 7.84375 0 L 6.8125 0 L 6.8125 -2.140625 L 7.109375 -2.015625 C 6.816406 -1.285156 6.363281 -0.726562 5.75 -0.34375 C 5.144531 0.0390625 4.414062 0.234375 3.5625 0.234375 Z M 3.6875 -0.765625 C 4.226562 -0.765625 4.703125 -0.863281 5.109375 -1.0625 C 5.523438 -1.257812 5.851562 -1.523438 6.09375 -1.859375 C 6.34375 -2.203125 6.503906 -2.585938 6.578125 -3.015625 C 6.640625 -3.296875 6.671875 -3.597656 6.671875 -3.921875 C 6.679688 -4.253906 6.6875 -4.503906 6.6875 -4.671875 L 7.140625 -4.4375 C 6.742188 -4.382812 6.3125 -4.332031 5.84375 -4.28125 C 5.382812 -4.226562 4.929688 -4.164062 4.484375 -4.09375 C 4.035156 -4.03125 3.632812 -3.945312 3.28125 -3.84375 C 3.039062 -3.78125 2.804688 -3.6875 2.578125 -3.5625 C 2.347656 -3.4375 2.160156 -3.269531 2.015625 -3.0625 C 1.867188 -2.851562 1.796875 -2.597656 1.796875 -2.296875 C 1.796875 -2.046875 1.859375 -1.804688 1.984375 -1.578125 C 2.109375 -1.347656 2.304688 -1.15625 2.578125 -1 C 2.859375 -0.84375 3.226562 -0.765625 3.6875 -0.765625 Z M 3.6875 -0.765625 "/></g></g></g><g fill="#0a0a0a" fill-opacity="1"><g transform="translate(130.06434, 26.295312)"><g><path d="M 1.109375 0 L 1.109375 -11.40625 L 5.515625 -11.40625 C 6.148438 -11.40625 6.703125 -11.269531 7.171875 -11 C 7.648438 -10.738281 8.019531 -10.382812 8.28125 -9.9375 C 8.550781 -9.5 8.6875 -9.007812 8.6875 -8.46875 C 8.6875 -7.851562 8.519531 -7.304688 8.1875 -6.828125 C 7.863281 -6.347656 7.429688 -6.019531 6.890625 -5.84375 L 6.875 -6.234375 C 7.613281 -6.015625 8.191406 -5.640625 8.609375 -5.109375 C 9.035156 -4.585938 9.25 -3.953125 9.25 -3.203125 C 9.25 -2.535156 9.109375 -1.960938 8.828125 -1.484375 C 8.546875 -1.015625 8.148438 -0.648438 7.640625 -0.390625 C 7.140625 -0.128906 6.550781 0 5.875 0 Z M 2.28125 -1.109375 L 5.59375 -1.109375 C 6.0625 -1.109375 6.476562 -1.191406 6.84375 -1.359375 C 7.21875 -1.523438 7.507812 -1.757812 7.71875 -2.0625 C 7.9375 -2.375 8.046875 -2.75 8.046875 -3.1875 C 8.046875 -3.601562 7.945312 -3.976562 7.75 -4.3125 C 7.550781 -4.65625 7.285156 -4.925781 6.953125 -5.125 C 6.617188 -5.332031 6.238281 -5.4375 5.8125 -5.4375 L 2.28125 -5.4375 Z M 2.28125 -6.546875 L 5.5 -6.546875 C 5.863281 -6.546875 6.195312 -6.628906 6.5 -6.796875 C 6.800781 -6.960938 7.039062 -7.1875 7.21875 -7.46875 C 7.394531 -7.757812 7.484375 -8.097656 7.484375 -8.484375 C 7.484375 -9.023438 7.296875 -9.460938 6.921875 -9.796875 C 6.554688 -10.140625 6.082031 -10.3125 5.5 -10.3125 L 2.28125 -10.3125 Z M 2.28125 -6.546875 "/></g></g></g><g fill="#0a0a0a" fill-opacity="1"><g transform="translate(139.775593, 26.295312)"><g><path d="M 1.265625 0 L 1.265625 -11.640625 L 2.4375 -11.640625 L 2.4375 0 Z M 1.265625 0 "/></g></g></g><g fill="#0a0a0a" fill-opacity="1"><g transform="translate(143.474745, 26.295312)"><g><path d="M 4.6875 0.234375 C 3.832031 0.234375 3.101562 0.0390625 2.5 -0.34375 C 1.894531 -0.726562 1.429688 -1.257812 1.109375 -1.9375 C 0.796875 -2.625 0.640625 -3.40625 0.640625 -4.28125 C 0.640625 -5.175781 0.800781 -5.960938 1.125 -6.640625 C 1.445312 -7.316406 1.910156 -7.84375 2.515625 -8.21875 C 3.128906 -8.601562 3.851562 -8.796875 4.6875 -8.796875 C 5.539062 -8.796875 6.269531 -8.601562 6.875 -8.21875 C 7.476562 -7.832031 7.9375 -7.300781 8.25 -6.625 C 8.570312 -5.945312 8.734375 -5.164062 8.734375 -4.28125 C 8.734375 -3.382812 8.570312 -2.597656 8.25 -1.921875 C 7.925781 -1.242188 7.460938 -0.710938 6.859375 -0.328125 C 6.253906 0.046875 5.53125 0.234375 4.6875 0.234375 Z M 4.6875 -0.875 C 5.632812 -0.875 6.335938 -1.1875 6.796875 -1.8125 C 7.265625 -2.445312 7.5 -3.269531 7.5 -4.28125 C 7.5 -5.320312 7.265625 -6.144531 6.796875 -6.75 C 6.328125 -7.363281 5.625 -7.671875 4.6875 -7.671875 C 4.039062 -7.671875 3.507812 -7.523438 3.09375 -7.234375 C 2.6875 -6.953125 2.378906 -6.554688 2.171875 -6.046875 C 1.972656 -5.535156 1.875 -4.945312 1.875 -4.28125 C 1.875 -3.25 2.109375 -2.421875 2.578125 -1.796875 C 3.054688 -1.179688 3.757812 -0.875 4.6875 -0.875 Z M 4.6875 -0.875 "/></g></g></g><g fill="#0a0a0a" fill-opacity="1"><g transform="translate(152.845387, 26.295312)"><g><path d="M 4.65625 0.234375 C 3.789062 0.234375 3.0625 0.0390625 2.46875 -0.34375 C 1.875 -0.726562 1.421875 -1.257812 1.109375 -1.9375 C 0.804688 -2.613281 0.648438 -3.394531 0.640625 -4.28125 C 0.648438 -5.175781 0.8125 -5.960938 1.125 -6.640625 C 1.4375 -7.316406 1.890625 -7.84375 2.484375 -8.21875 C 3.085938 -8.601562 3.816406 -8.796875 4.671875 -8.796875 C 5.535156 -8.796875 6.285156 -8.582031 6.921875 -8.15625 C 7.566406 -7.738281 8.007812 -7.160156 8.25 -6.421875 L 7.109375 -6.0625 C 6.910156 -6.570312 6.59375 -6.96875 6.15625 -7.25 C 5.71875 -7.53125 5.21875 -7.671875 4.65625 -7.671875 C 4.03125 -7.671875 3.507812 -7.523438 3.09375 -7.234375 C 2.6875 -6.953125 2.378906 -6.554688 2.171875 -6.046875 C 1.972656 -5.535156 1.875 -4.945312 1.875 -4.28125 C 1.882812 -3.25 2.117188 -2.421875 2.578125 -1.796875 C 3.046875 -1.179688 3.738281 -0.875 4.65625 -0.875 C 5.238281 -0.875 5.734375 -1.003906 6.140625 -1.265625 C 6.546875 -1.535156 6.859375 -1.929688 7.078125 -2.453125 L 8.25 -2.09375 C 7.925781 -1.332031 7.457031 -0.753906 6.84375 -0.359375 C 6.238281 0.0351562 5.507812 0.234375 4.65625 0.234375 Z M 4.65625 0.234375 "/></g></g></g><g fill="#0a0a0a" fill-opacity="1"><g transform="translate(161.614033, 26.295312)"><g><path d="M 1.09375 0 L 1.109375 -11.40625 L 2.28125 -11.40625 L 2.28125 -4.4375 L 6.09375 -8.5625 L 7.65625 -8.5625 L 3.640625 -4.28125 L 8.171875 0 L 6.484375 0 L 2.28125 -4.125 L 2.28125 0 Z M 1.09375 0 "/></g></g></g><g fill="#0a0a0a" fill-opacity="1"><g transform="translate(169.313311, 26.295312)"><g><path d="M 4.296875 0.234375 C 3.296875 0.234375 2.472656 0.0195312 1.828125 -0.40625 C 1.179688 -0.84375 0.785156 -1.445312 0.640625 -2.21875 L 1.828125 -2.421875 C 1.953125 -1.929688 2.238281 -1.539062 2.6875 -1.25 C 3.132812 -0.96875 3.691406 -0.828125 4.359375 -0.828125 C 5.015625 -0.828125 5.53125 -0.960938 5.90625 -1.234375 C 6.28125 -1.503906 6.46875 -1.878906 6.46875 -2.359375 C 6.46875 -2.617188 6.40625 -2.832031 6.28125 -3 C 6.164062 -3.164062 5.925781 -3.316406 5.5625 -3.453125 C 5.195312 -3.597656 4.648438 -3.769531 3.921875 -3.96875 C 3.148438 -4.175781 2.546875 -4.382812 2.109375 -4.59375 C 1.671875 -4.8125 1.359375 -5.054688 1.171875 -5.328125 C 0.984375 -5.609375 0.890625 -5.953125 0.890625 -6.359375 C 0.890625 -6.835938 1.023438 -7.257812 1.296875 -7.625 C 1.578125 -8 1.957031 -8.285156 2.4375 -8.484375 C 2.925781 -8.691406 3.492188 -8.796875 4.140625 -8.796875 C 4.785156 -8.796875 5.363281 -8.691406 5.875 -8.484375 C 6.382812 -8.273438 6.796875 -7.984375 7.109375 -7.609375 C 7.421875 -7.234375 7.601562 -6.796875 7.65625 -6.296875 L 6.46875 -6.078125 C 6.394531 -6.585938 6.144531 -6.988281 5.71875 -7.28125 C 5.300781 -7.570312 4.769531 -7.722656 4.125 -7.734375 C 3.519531 -7.742188 3.023438 -7.625 2.640625 -7.375 C 2.265625 -7.132812 2.078125 -6.8125 2.078125 -6.40625 C 2.078125 -6.175781 2.144531 -5.976562 2.28125 -5.8125 C 2.414062 -5.65625 2.664062 -5.503906 3.03125 -5.359375 C 3.394531 -5.222656 3.910156 -5.070312 4.578125 -4.90625 C 5.367188 -4.707031 5.988281 -4.492188 6.4375 -4.265625 C 6.882812 -4.046875 7.203125 -3.785156 7.390625 -3.484375 C 7.578125 -3.179688 7.671875 -2.8125 7.671875 -2.375 C 7.671875 -1.5625 7.367188 -0.921875 6.765625 -0.453125 C 6.171875 0.00390625 5.347656 0.234375 4.296875 0.234375 Z M 4.296875 0.234375 "/></g></g></g><g fill="#0a0a0a" fill-opacity="1"><g transform="translate(85.642881, 56.204914)"><g><path d="M 6.734375 0 L 6.734375 -16.828125 L 0.28125 -16.828125 L 0.28125 -19.96875 L 16.546875 -19.96875 L 16.546875 -16.828125 L 10.078125 -16.828125 L 10.078125 0 Z M 6.734375 0 "/></g></g></g><g fill="#0a0a0a" fill-opacity="1"><g transform="translate(100.518314, 56.204914)"><g><path d="M 6.125 0.421875 C 5.039062 0.421875 4.125 0.21875 3.375 -0.1875 C 2.632812 -0.601562 2.070312 -1.15625 1.6875 -1.84375 C 1.300781 -2.53125 1.109375 -3.285156 1.109375 -4.109375 C 1.109375 -4.828125 1.226562 -5.472656 1.46875 -6.046875 C 1.707031 -6.628906 2.078125 -7.128906 2.578125 -7.546875 C 3.078125 -7.972656 3.722656 -8.316406 4.515625 -8.578125 C 5.117188 -8.773438 5.820312 -8.953125 6.625 -9.109375 C 7.4375 -9.265625 8.316406 -9.410156 9.265625 -9.546875 C 10.210938 -9.679688 11.207031 -9.828125 12.25 -9.984375 L 11.046875 -9.3125 C 11.054688 -10.34375 10.828125 -11.101562 10.359375 -11.59375 C 9.890625 -12.082031 9.09375 -12.328125 7.96875 -12.328125 C 7.300781 -12.328125 6.648438 -12.171875 6.015625 -11.859375 C 5.390625 -11.546875 4.953125 -11.003906 4.703125 -10.234375 L 1.65625 -11.1875 C 2.019531 -12.457031 2.722656 -13.472656 3.765625 -14.234375 C 4.804688 -15.003906 6.207031 -15.390625 7.96875 -15.390625 C 9.300781 -15.390625 10.472656 -15.171875 11.484375 -14.734375 C 12.492188 -14.304688 13.25 -13.597656 13.75 -12.609375 C 14.007812 -12.078125 14.164062 -11.535156 14.21875 -10.984375 C 14.28125 -10.441406 14.3125 -9.84375 14.3125 -9.1875 L 14.3125 0 L 11.390625 0 L 11.390625 -3.25 L 11.875 -2.71875 C 11.195312 -1.632812 10.40625 -0.835938 9.5 -0.328125 C 8.601562 0.171875 7.476562 0.421875 6.125 0.421875 Z M 6.796875 -2.25 C 7.554688 -2.25 8.203125 -2.378906 8.734375 -2.640625 C 9.273438 -2.910156 9.703125 -3.238281 10.015625 -3.625 C 10.335938 -4.019531 10.550781 -4.390625 10.65625 -4.734375 C 10.832031 -5.148438 10.929688 -5.632812 10.953125 -6.1875 C 10.984375 -6.738281 11 -7.1875 11 -7.53125 L 12.015625 -7.21875 C 11.015625 -7.0625 10.148438 -6.921875 9.421875 -6.796875 C 8.703125 -6.679688 8.082031 -6.570312 7.5625 -6.46875 C 7.050781 -6.363281 6.597656 -6.242188 6.203125 -6.109375 C 5.804688 -5.972656 5.472656 -5.8125 5.203125 -5.625 C 4.941406 -5.445312 4.738281 -5.234375 4.59375 -4.984375 C 4.445312 -4.742188 4.375 -4.460938 4.375 -4.140625 C 4.375 -3.773438 4.46875 -3.453125 4.65625 -3.171875 C 4.84375 -2.890625 5.113281 -2.664062 5.46875 -2.5 C 5.820312 -2.332031 6.265625 -2.25 6.796875 -2.25 Z M 6.796875 -2.25 "/></g></g></g><g fill="#0a0a0a" fill-opacity="1"><g transform="translate(116.489059, 56.204914)"><g><path d="M 9.140625 0.421875 C 7.679688 0.421875 6.457031 0.078125 5.46875 -0.609375 C 4.476562 -1.304688 3.734375 -2.253906 3.234375 -3.453125 C 2.734375 -4.648438 2.484375 -5.992188 2.484375 -7.484375 C 2.484375 -8.992188 2.734375 -10.34375 3.234375 -11.53125 C 3.734375 -12.726562 4.460938 -13.671875 5.421875 -14.359375 C 6.390625 -15.046875 7.585938 -15.390625 9.015625 -15.390625 C 10.429688 -15.390625 11.65625 -15.046875 12.6875 -14.359375 C 13.726562 -13.671875 14.535156 -12.734375 15.109375 -11.546875 C 15.679688 -10.359375 15.96875 -9.003906 15.96875 -7.484375 C 15.96875 -5.984375 15.6875 -4.632812 15.125 -3.4375 C 14.5625 -2.25 13.765625 -1.304688 12.734375 -0.609375 C 11.710938 0.078125 10.515625 0.421875 9.140625 0.421875 Z M 1.90625 0 L 1.90625 -19.96875 L 5.28125 -19.96875 L 5.28125 -10.515625 L 4.875 -10.515625 L 4.875 0 Z M 8.625 -2.578125 C 9.488281 -2.578125 10.203125 -2.789062 10.765625 -3.21875 C 11.335938 -3.65625 11.757812 -4.242188 12.03125 -4.984375 C 12.300781 -5.734375 12.4375 -6.566406 12.4375 -7.484375 C 12.4375 -8.390625 12.296875 -9.210938 12.015625 -9.953125 C 11.742188 -10.703125 11.316406 -11.296875 10.734375 -11.734375 C 10.148438 -12.171875 9.410156 -12.390625 8.515625 -12.390625 C 7.660156 -12.390625 6.960938 -12.179688 6.421875 -11.765625 C 5.890625 -11.359375 5.5 -10.785156 5.25 -10.046875 C 5 -9.316406 4.875 -8.460938 4.875 -7.484375 C 4.875 -6.515625 5 -5.660156 5.25 -4.921875 C 5.5 -4.179688 5.898438 -3.601562 6.453125 -3.1875 C 7.003906 -2.78125 7.726562 -2.578125 8.625 -2.578125 Z M 8.625 -2.578125 "/></g></g></g><g fill="#0a0a0a" fill-opacity="1"><g transform="translate(133.222279, 56.204914)"><g><path d="M 7.71875 0.421875 C 5.875 0.421875 4.375 0.00390625 3.21875 -0.828125 C 2.0625 -1.660156 1.359375 -2.832031 1.109375 -4.34375 L 4.515625 -4.875 C 4.691406 -4.132812 5.082031 -3.550781 5.6875 -3.125 C 6.289062 -2.695312 7.046875 -2.484375 7.953125 -2.484375 C 8.765625 -2.484375 9.390625 -2.640625 9.828125 -2.953125 C 10.265625 -3.273438 10.484375 -3.710938 10.484375 -4.265625 C 10.484375 -4.609375 10.398438 -4.882812 10.234375 -5.09375 C 10.078125 -5.300781 9.722656 -5.5 9.171875 -5.6875 C 8.628906 -5.882812 7.796875 -6.132812 6.671875 -6.4375 C 5.410156 -6.769531 4.410156 -7.125 3.671875 -7.5 C 2.929688 -7.882812 2.398438 -8.34375 2.078125 -8.875 C 1.753906 -9.40625 1.59375 -10.039062 1.59375 -10.78125 C 1.59375 -11.71875 1.835938 -12.53125 2.328125 -13.21875 C 2.816406 -13.914062 3.5 -14.453125 4.375 -14.828125 C 5.257812 -15.203125 6.296875 -15.390625 7.484375 -15.390625 C 8.648438 -15.390625 9.679688 -15.207031 10.578125 -14.84375 C 11.484375 -14.488281 12.210938 -13.976562 12.765625 -13.3125 C 13.328125 -12.644531 13.671875 -11.863281 13.796875 -10.96875 L 10.390625 -10.359375 C 10.304688 -10.992188 10.015625 -11.492188 9.515625 -11.859375 C 9.023438 -12.234375 8.367188 -12.445312 7.546875 -12.5 C 6.753906 -12.539062 6.117188 -12.421875 5.640625 -12.140625 C 5.160156 -11.859375 4.921875 -11.460938 4.921875 -10.953125 C 4.921875 -10.671875 5.015625 -10.425781 5.203125 -10.21875 C 5.398438 -10.019531 5.789062 -9.816406 6.375 -9.609375 C 6.96875 -9.410156 7.847656 -9.160156 9.015625 -8.859375 C 10.203125 -8.554688 11.15625 -8.207031 11.875 -7.8125 C 12.59375 -7.414062 13.109375 -6.945312 13.421875 -6.40625 C 13.742188 -5.863281 13.90625 -5.203125 13.90625 -4.421875 C 13.90625 -2.910156 13.359375 -1.722656 12.265625 -0.859375 C 11.171875 -0.00390625 9.65625 0.421875 7.71875 0.421875 Z M 7.71875 0.421875 "/></g></g></g><g fill="#0a0a0a" fill-opacity="1"><g transform="translate(148.236441, 56.204914)"><g/></g></g><g fill="#0a0a0a" fill-opacity="1"><g transform="translate(153.781841, 56.204914)"><g><path d="M 1.9375 0 L 1.9375 -19.96875 L 9.859375 -19.96875 C 11.210938 -19.96875 12.320312 -19.695312 13.1875 -19.15625 C 14.050781 -18.613281 14.691406 -17.921875 15.109375 -17.078125 C 15.523438 -16.242188 15.734375 -15.378906 15.734375 -14.484375 C 15.734375 -13.378906 15.472656 -12.441406 14.953125 -11.671875 C 14.429688 -10.910156 13.722656 -10.394531 12.828125 -10.125 L 12.828125 -10.8125 C 14.085938 -10.53125 15.039062 -9.9375 15.6875 -9.03125 C 16.34375 -8.125 16.671875 -7.09375 16.671875 -5.9375 C 16.671875 -4.75 16.441406 -3.710938 15.984375 -2.828125 C 15.535156 -1.941406 14.863281 -1.25 13.96875 -0.75 C 13.082031 -0.25 11.976562 0 10.65625 0 Z M 5.328125 -3.140625 L 10.25 -3.140625 C 10.832031 -3.140625 11.351562 -3.257812 11.8125 -3.5 C 12.28125 -3.738281 12.644531 -4.070312 12.90625 -4.5 C 13.164062 -4.925781 13.296875 -5.4375 13.296875 -6.03125 C 13.296875 -6.570312 13.179688 -7.050781 12.953125 -7.46875 C 12.722656 -7.894531 12.382812 -8.234375 11.9375 -8.484375 C 11.5 -8.742188 10.96875 -8.875 10.34375 -8.875 L 5.328125 -8.875 Z M 5.328125 -12 L 9.8125 -12 C 10.289062 -12 10.71875 -12.085938 11.09375 -12.265625 C 11.476562 -12.453125 11.78125 -12.722656 12 -13.078125 C 12.226562 -13.441406 12.34375 -13.890625 12.34375 -14.421875 C 12.34375 -15.117188 12.117188 -15.695312 11.671875 -16.15625 C 11.234375 -16.613281 10.613281 -16.84375 9.8125 -16.84375 L 5.328125 -16.84375 Z M 5.328125 -12 "/></g></g></g><g fill="#0a0a0a" fill-opacity="1"><g transform="translate(171.277571, 56.204914)"><g><path d="M 2.21875 0 L 2.21875 -20.390625 L 5.5625 -20.390625 L 5.5625 0 Z M 2.21875 0 "/></g></g></g><g fill="#0a0a0a" fill-opacity="1"><g transform="translate(179.054986, 56.204914)"><g><path d="M 8.5625 0.421875 C 7.0625 0.421875 5.75 0.0820312 4.625 -0.59375 C 3.507812 -1.269531 2.644531 -2.203125 2.03125 -3.390625 C 1.414062 -4.578125 1.109375 -5.941406 1.109375 -7.484375 C 1.109375 -9.054688 1.421875 -10.429688 2.046875 -11.609375 C 2.679688 -12.796875 3.554688 -13.722656 4.671875 -14.390625 C 5.785156 -15.054688 7.082031 -15.390625 8.5625 -15.390625 C 10.0625 -15.390625 11.367188 -15.050781 12.484375 -14.375 C 13.609375 -13.707031 14.476562 -12.773438 15.09375 -11.578125 C 15.71875 -10.390625 16.03125 -9.023438 16.03125 -7.484375 C 16.03125 -5.929688 15.71875 -4.5625 15.09375 -3.375 C 14.46875 -2.1875 13.59375 -1.253906 12.46875 -0.578125 C 11.351562 0.0859375 10.050781 0.421875 8.5625 0.421875 Z M 8.5625 -2.71875 C 9.882812 -2.71875 10.867188 -3.160156 11.515625 -4.046875 C 12.171875 -4.929688 12.5 -6.078125 12.5 -7.484375 C 12.5 -8.941406 12.171875 -10.101562 11.515625 -10.96875 C 10.859375 -11.832031 9.875 -12.265625 8.5625 -12.265625 C 7.65625 -12.265625 6.914062 -12.0625 6.34375 -11.65625 C 5.769531 -11.25 5.34375 -10.6875 5.0625 -9.96875 C 4.78125 -9.257812 4.640625 -8.429688 4.640625 -7.484375 C 4.640625 -6.035156 4.96875 -4.878906 5.625 -4.015625 C 6.289062 -3.148438 7.269531 -2.71875 8.5625 -2.71875 Z M 8.5625 -2.71875 "/></g></g></g><g fill="#0a0a0a" fill-opacity="1"><g transform="translate(196.190259, 56.204914)"><g><path d="M 8.4375 0.421875 C 6.894531 0.421875 5.578125 0.078125 4.484375 -0.609375 C 3.398438 -1.304688 2.566406 -2.25 1.984375 -3.4375 C 1.410156 -4.632812 1.117188 -5.984375 1.109375 -7.484375 C 1.117188 -9.023438 1.421875 -10.390625 2.015625 -11.578125 C 2.609375 -12.765625 3.457031 -13.695312 4.5625 -14.375 C 5.664062 -15.050781 6.972656 -15.390625 8.484375 -15.390625 C 10.179688 -15.390625 11.617188 -14.960938 12.796875 -14.109375 C 13.984375 -13.253906 14.753906 -12.085938 15.109375 -10.609375 L 11.78125 -9.703125 C 11.53125 -10.503906 11.101562 -11.128906 10.5 -11.578125 C 9.894531 -12.035156 9.207031 -12.265625 8.4375 -12.265625 C 7.570312 -12.265625 6.859375 -12.054688 6.296875 -11.640625 C 5.734375 -11.234375 5.316406 -10.664062 5.046875 -9.9375 C 4.773438 -9.21875 4.640625 -8.398438 4.640625 -7.484375 C 4.640625 -6.066406 4.957031 -4.914062 5.59375 -4.03125 C 6.238281 -3.15625 7.1875 -2.71875 8.4375 -2.71875 C 9.332031 -2.71875 10.035156 -2.921875 10.546875 -3.328125 C 11.054688 -3.734375 11.441406 -4.320312 11.703125 -5.09375 L 15.109375 -4.328125 C 14.648438 -2.796875 13.84375 -1.617188 12.6875 -0.796875 C 11.53125 0.015625 10.113281 0.421875 8.4375 0.421875 Z M 8.4375 0.421875 "/></g></g></g><g fill="#0a0a0a" fill-opacity="1"><g transform="translate(212.147142, 56.204914)"><g><path d="M 1.90625 0 L 1.9375 -19.96875 L 5.328125 -19.96875 L 5.328125 -7.765625 L 10.796875 -14.96875 L 14.96875 -14.96875 L 9.171875 -7.484375 L 15.46875 0 L 11.046875 0 L 5.328125 -7.203125 L 5.328125 0 Z M 1.90625 0 "/></g></g></g><path fill="#ffffff" d="M 17.550781 15.347656 C 15.367188 15.347656 13.59375 17.121094 13.59375 19.304688 L 13.59375 32.753906 L 36.695312 32.753906 L 36.695312 19.304688 C 36.695312 17.121094 34.925781 15.347656 32.742188 15.347656 Z M 45.714844 32.753906 L 45.714844 22.46875 L 59.324219 22.46875 L 59.324219 32.753906 L 64.070312 32.753906 L 64.070312 21.679688 C 64.070312 19.492188 62.300781 17.722656 60.117188 17.722656 L 44.925781 17.722656 C 42.742188 17.722656 40.96875 19.492188 40.96875 21.679688 L 40.96875 32.753906 Z M 64.070312 39.875 L 13.4375 39.875 L 13.4375 44.621094 L 64.070312 44.621094 Z M 45.082031 54.113281 L 13.4375 54.113281 L 13.4375 58.863281 L 45.082031 58.863281 Z M 45.082031 54.113281 " fill-opacity="1" fill-rule="evenodd"/></svg>
